<svg width="24" height="24" viewBox="0 0 24 24" fill="none" xmlns="http://www.w3.org/2000/svg">
<g clip-path="url(#clip0_29_2)">
<path d="M3.8416 10.224L3.0464 10.1344L3.8416 10.224ZM2.5968 21.424L3.392 21.512L2.5968 21.424ZM21.4032 21.424L20.608 21.512L21.4032 21.424ZM20.1584 10.224L20.9536 10.1344L20.1584 10.224ZM3.0464 10.1344L1.8016 21.3344L3.392 21.5104L4.6368 10.3104L3.0464 10.1344V10.1344ZM4.1872 24H19.8128V22.4H4.1872V24ZM22.1984 21.3344L20.9536 10.1344L19.3632 10.3104L20.608 21.5104L22.1968 21.3344H22.1984ZM18.5664 8H5.4336V9.6H18.5696V8H18.5664ZM20.9536 10.1344C20.8882 9.54744 20.6088 9.00518 20.1686 8.61139C19.7285 8.2176 19.1586 7.99992 18.568 8V9.6C18.7649 9.59999 18.955 9.67262 19.1017 9.804C19.2484 9.93537 19.3415 10.1163 19.3632 10.312L20.9536 10.136V10.1344ZM19.8128 24C20.1503 23.9998 20.4839 23.9285 20.792 23.7906C21.1 23.6528 21.3755 23.4515 21.6005 23.1999C21.8254 22.9484 21.9948 22.6522 22.0976 22.3308C22.2003 22.0093 22.2341 21.6698 22.1968 21.3344L20.608 21.5104C20.6206 21.6223 20.6095 21.7357 20.5752 21.843C20.541 21.9503 20.4845 22.0492 20.4095 22.1332C20.3344 22.2171 20.2425 22.2843 20.1396 22.3303C20.0368 22.3763 19.9254 22.4 19.8128 22.4V24ZM1.8016 21.3344C1.76424 21.6699 1.79809 22.0096 1.90094 22.3311C2.00379 22.6527 2.17333 22.949 2.39848 23.2005C2.62362 23.4521 2.89932 23.6533 3.20754 23.7911C3.51577 23.9289 3.84959 24 4.1872 24V22.4C4.07471 22.4 3.96349 22.3763 3.86079 22.3304C3.75809 22.2845 3.66622 22.2175 3.59118 22.1337C3.51614 22.0499 3.45961 21.9512 3.42529 21.8441C3.39097 21.737 3.37963 21.6238 3.392 21.512L1.8016 21.336V21.3344ZM4.6368 10.3104C4.65883 10.1149 4.7521 9.93444 4.89879 9.8034C5.04548 9.67235 5.2353 9.59994 5.432 9.6V8C4.84169 8.00031 4.27219 8.21817 3.83239 8.61192C3.39259 9.00568 3.11333 9.54771 3.048 10.1344L4.6368 10.3104V10.3104ZM8 6.4V5.6H6.4V6.4H8ZM16 5.6V6.4H17.6V5.6H16ZM12 1.6C13.0609 1.6 14.0783 2.02143 14.8284 2.77157C15.5786 3.52172 16 4.53913 16 5.6H17.6C17.6 4.11479 17.01 2.69041 15.9598 1.6402C14.9096 0.589998 13.4852 0 12 0V1.6ZM8 5.6C8 4.53913 8.42143 3.52172 9.17157 2.77157C9.92172 2.02143 10.9391 1.6 12 1.6V0C10.5148 0 9.09041 0.589998 8.0402 1.6402C6.99 2.69041 6.4 4.11479 6.4 5.6H8Z" fill="black"/>
</g>
<defs>
<clipPath id="clip0_29_2">
<rect width="24" height="24" fill="white"/>
</clipPath>
</defs>
</svg>
