<svg width="15" height="16" viewBox="0 0 15 16" fill="none" xmlns="http://www.w3.org/2000/svg">
<path d="M13.5 1.33333H1.5V14.2708L6.45703 10.0417L7.5 9.15625L8.54297 10.0417L13.5 14.2708V1.33333ZM13.6406 0C13.8203 0 13.9922 0.03125 14.1562 0.09375C14.4141 0.184028 14.6191 0.326389 14.7715 0.520833C14.9238 0.715278 15 0.930556 15 1.16667V14.5938C15 14.8299 14.9238 15.0451 14.7715 15.2396C14.6191 15.434 14.4141 15.5764 14.1562 15.6667C14.0078 15.7222 13.8359 15.75 13.6406 15.75C13.2656 15.75 12.9414 15.6389 12.668 15.4167L7.5 11L2.33203 15.4167C2.05078 15.6458 1.72656 15.7604 1.35938 15.7604C1.17969 15.7604 1.00781 15.7292 0.84375 15.6667C0.585938 15.5764 0.380859 15.434 0.228516 15.2396C0.0761719 15.0451 0 14.8299 0 14.5938V1.16667C0 0.930556 0.0761719 0.715278 0.228516 0.520833C0.380859 0.326389 0.585938 0.184028 0.84375 0.09375C1.00781 0.03125 1.17969 0 1.35938 0H13.6406Z" fill="black"/>
</svg>
