<svg width="23" height="22" viewBox="0 0 23 22" fill="none" xmlns="http://www.w3.org/2000/svg">
<path d="M17.25 12C17.25 13.5913 16.6442 15.1174 15.5659 16.2426C14.4875 17.3679 13.025 18 11.5 18C9.975 18 8.51247 17.3679 7.43414 16.2426C6.3558 15.1174 5.75 13.5913 5.75 12C5.75 10.4087 6.3558 8.88258 7.43414 7.75736C8.51247 6.63214 9.975 6 11.5 6C13.025 6 14.4875 6.63214 15.5659 7.75736C16.6442 8.88258 17.25 10.4087 17.25 12V12ZM15.3333 12C15.3333 10.9391 14.9295 9.92172 14.2106 9.17157C13.4917 8.42143 12.5167 8 11.5 8C10.4833 8 9.50831 8.42143 8.78942 9.17157C8.07053 9.92172 7.66667 10.9391 7.66667 12C7.66667 13.0609 8.07053 14.0783 8.78942 14.8284C9.50831 15.5786 10.4833 16 11.5 16C12.5167 16 13.4917 15.5786 14.2106 14.8284C14.9295 14.0783 15.3333 13.0609 15.3333 12ZM8.85117 0C8.31696 1.883e-05 7.79333 0.155345 7.339 0.448556C6.88467 0.741768 6.51761 1.16127 6.279 1.66L5.15775 4H3.83333C2.81667 4 1.84165 4.42143 1.12276 5.17157C0.403868 5.92172 0 6.93913 0 8V18C0 19.0609 0.403868 20.0783 1.12276 20.8284C1.84165 21.5786 2.81667 22 3.83333 22H19.1667C20.1833 22 21.1584 21.5786 21.8772 20.8284C22.5961 20.0783 23 19.0609 23 18V8C23 6.93913 22.5961 5.92172 21.8772 5.17157C21.1584 4.42143 20.1833 4 19.1667 4H17.8422L16.721 1.66C16.4824 1.16127 16.1153 0.741768 15.661 0.448556C15.2067 0.155345 14.683 1.883e-05 14.1488 0H8.85117ZM7.99442 2.552C8.07408 2.38611 8.19641 2.24661 8.34772 2.14913C8.49902 2.05164 8.67334 2.00001 8.85117 2H14.1488C14.3267 2.00001 14.501 2.05164 14.6523 2.14913C14.8036 2.24661 14.9259 2.38611 15.0056 2.552L16.3933 5.448C16.4729 5.61389 16.5952 5.75339 16.7466 5.85087C16.8979 5.94836 17.0722 5.99999 17.25 6H19.1667C19.675 6 20.1625 6.21071 20.522 6.58579C20.8814 6.96086 21.0833 7.46957 21.0833 8V18C21.0833 18.5304 20.8814 19.0391 20.522 19.4142C20.1625 19.7893 19.675 20 19.1667 20H3.83333C3.325 20 2.83749 19.7893 2.47805 19.4142C2.1186 19.0391 1.91667 18.5304 1.91667 18V8C1.91667 7.46957 2.1186 6.96086 2.47805 6.58579C2.83749 6.21071 3.325 6 3.83333 6H5.75C5.92783 5.99999 6.10214 5.94836 6.25345 5.85087C6.40476 5.75339 6.52708 5.61389 6.60675 5.448L7.99442 2.552V2.552Z" fill="black"/>
</svg>
