<svg width="16" height="16" viewBox="0 0 16 16" fill="none" xmlns="http://www.w3.org/2000/svg">
<path fill-rule="evenodd" clip-rule="evenodd" d="M10.6667 5.99998C10.6667 6.70722 10.3857 7.3855 9.88562 7.8856C9.38552 8.38569 8.70725 8.66665 8 8.66665C7.29276 8.66665 6.61448 8.38569 6.11438 7.8856C5.61429 7.3855 5.33334 6.70722 5.33334 5.99998C5.33334 5.29274 5.61429 4.61446 6.11438 4.11436C6.61448 3.61426 7.29276 3.33331 8 3.33331C8.70725 3.33331 9.38552 3.61426 9.88562 4.11436C10.3857 4.61446 10.6667 5.29274 10.6667 5.99998ZM9.33334 5.99998C9.33334 6.3536 9.19286 6.69274 8.94281 6.94279C8.69276 7.19284 8.35362 7.33331 8 7.33331C7.64638 7.33331 7.30724 7.19284 7.05719 6.94279C6.80715 6.69274 6.66667 6.3536 6.66667 5.99998C6.66667 5.64636 6.80715 5.30722 7.05719 5.05717C7.30724 4.80712 7.64638 4.66665 8 4.66665C8.35362 4.66665 8.69276 4.80712 8.94281 5.05717C9.19286 5.30722 9.33334 5.64636 9.33334 5.99998Z" fill="black"/>
<path fill-rule="evenodd" clip-rule="evenodd" d="M8 0.666656C3.95 0.666656 0.666668 3.94999 0.666668 7.99999C0.666668 12.05 3.95 15.3333 8 15.3333C12.05 15.3333 15.3333 12.05 15.3333 7.99999C15.3333 3.94999 12.05 0.666656 8 0.666656ZM2 7.99999C2 9.39332 2.47533 10.676 3.272 11.6947C3.83149 10.9599 4.55327 10.3645 5.38096 9.95486C6.20865 9.54524 7.11983 9.33252 8.04333 9.33332C8.95489 9.33246 9.85461 9.53967 10.674 9.93918C11.4933 10.3387 12.2106 10.9199 12.7713 11.6387C13.349 10.8811 13.7379 9.9968 13.9059 9.05905C14.074 8.1213 14.0163 7.15701 13.7377 6.24598C13.459 5.33495 12.9675 4.50336 12.3037 3.82001C11.6398 3.13667 10.8228 2.62123 9.92026 2.31633C9.01768 2.01143 8.05547 1.92584 7.11324 2.06664C6.17102 2.20744 5.27586 2.57058 4.50185 3.12603C3.72783 3.68147 3.09721 4.41324 2.66215 5.26079C2.2271 6.10834 2.00012 7.0473 2 7.99999ZM8 14C6.62263 14.0021 5.28685 13.5282 4.21867 12.6587C4.64862 12.0431 5.22089 11.5406 5.8868 11.1938C6.5527 10.847 7.29253 10.6661 8.04333 10.6667C8.78478 10.6661 9.51566 10.8424 10.1753 11.1809C10.8349 11.5195 11.4042 12.0106 11.836 12.6133C10.7595 13.5111 9.40172 14.002 8 14Z" fill="black"/>
</svg>
