<svg width="23" height="23" viewBox="0 0 23 23" fill="none" xmlns="http://www.w3.org/2000/svg">
<path d="M10.8092 0.486249C11.0067 0.332625 11.2498 0.249218 11.5 0.249218C11.7502 0.249218 11.9933 0.332625 12.1907 0.486249L21.4472 7.68625C21.8532 8.00203 22.1816 8.40642 22.4074 8.86851C22.6332 9.33061 22.7504 9.83819 22.75 10.3525V20.5C22.75 21.0967 22.5129 21.669 22.091 22.091C21.669 22.5129 21.0967 22.75 20.5 22.75H16C15.4033 22.75 14.831 22.5129 14.409 22.091C13.9871 21.669 13.75 21.0967 13.75 20.5V13.75H9.25V20.5C9.25 21.0967 9.01295 21.669 8.59099 22.091C8.16903 22.5129 7.59674 22.75 7 22.75H2.5C1.90326 22.75 1.33097 22.5129 0.90901 22.091C0.487053 21.669 0.25 21.0967 0.25 20.5V10.3525C0.25 9.3085 0.7315 8.3275 1.555 7.68625L10.8092 0.486249V0.486249ZM11.5 2.79925L2.93425 9.4615C2.79863 9.56699 2.68898 9.70215 2.61371 9.8566C2.53844 10.011 2.49954 10.1807 2.5 10.3525V20.5H7V13.75C7 13.1533 7.23705 12.581 7.65901 12.159C8.08097 11.7371 8.65326 11.5 9.25 11.5H13.75C14.3467 11.5 14.919 11.7371 15.341 12.159C15.7629 12.581 16 13.1533 16 13.75V20.5H20.5V10.3525C20.5005 10.1807 20.4616 10.011 20.3863 9.8566C20.311 9.70215 20.2014 9.56699 20.0657 9.4615L11.5 2.8015V2.79925Z" fill="black"/>
</svg>
