<svg width="103" height="29" viewBox="0 0 103 29" fill="none" xmlns="http://www.w3.org/2000/svg">
<path d="M5.26145 0.100874C3.16907 0.9774 0.868837 3.45057 0.142356 6.55712C-0.777704 10.4922 3.05103 12.1565 3.36506 11.6115C3.73467 10.9704 2.67902 10.7536 2.46169 8.71179C2.18087 6.07464 3.40687 3.12793 4.95 1.835C5.23667 1.59479 5.22308 1.92912 5.22308 2.54754C5.22308 3.65344 5.16199 13.581 5.16199 15.6529C5.16199 18.4565 5.04619 19.3418 4.83815 20.2166C4.62754 21.1031 4.28873 21.7021 4.54529 21.9328C4.83213 22.1909 6.05676 21.577 6.76569 20.5876C7.61571 19.401 7.91322 17.9759 7.96674 16.4283C8.03126 14.5627 8.02851 11.6024 8.03126 9.91387C8.03367 8.36524 8.05725 3.8305 8.00408 1.10439C7.991 0.435722 6.1366 -0.265808 5.26145 0.100874" fill="#343433"/>
<path d="M79.5616 13.2212C79.4941 14.6787 79.1715 15.8179 78.7711 16.6215C77.9959 18.1772 76.3874 18.6602 75.7044 16.424C75.3322 15.205 75.3149 13.1691 75.5824 11.468C75.8548 9.73509 76.6154 8.42632 77.8748 8.54436C79.1169 8.66103 79.6984 10.2616 79.5616 13.2212ZM58.6203 22.2639C58.6034 24.6856 58.2223 26.8089 57.4049 27.4256C56.2457 28.3001 54.6876 27.6442 55.0102 25.877C55.2957 24.3132 56.6458 22.7162 58.6235 20.765C58.6235 20.765 58.6277 21.2099 58.6203 22.2639V22.2639ZM58.3037 13.207C58.2328 14.5345 57.8886 15.868 57.5132 16.6215C56.7382 18.1772 55.118 18.6635 54.4465 16.424C53.9875 14.8938 54.0974 12.9134 54.3245 11.6655C54.6193 10.0465 55.3337 8.54453 56.6169 8.54453C57.8644 8.54453 58.4795 9.91318 58.3037 13.207V13.207ZM46.1725 13.1868C46.0965 14.5926 45.8222 15.7679 45.382 16.6215C44.5857 18.1665 43.0102 18.6564 42.3154 16.424C41.8145 14.8141 41.985 12.6192 42.1934 11.4334C42.5026 9.67383 43.2769 8.42632 44.4857 8.54453C45.7274 8.66584 46.331 10.2616 46.1725 13.1868ZM101.767 14.8289C101.463 14.8289 101.324 15.1419 101.21 15.6684C100.812 17.4998 100.395 17.9131 99.8559 17.9131C99.254 17.9131 98.7132 17.0064 98.5741 15.1913C98.4649 13.7639 98.4824 11.1364 98.6221 8.52268C98.6507 7.98565 98.5025 7.4543 97.0621 6.93103C96.4423 6.70596 95.5414 6.37456 95.0928 7.45739C93.8253 10.5166 93.3294 12.9454 93.2128 13.9319C93.2067 13.983 93.1441 13.9935 93.1331 13.8741C93.0588 13.0839 92.8925 11.6478 92.8719 8.63091C92.8679 8.04226 92.7432 7.54119 92.0934 7.13098C91.6719 6.86479 90.3917 6.394 89.9307 6.95409C89.5313 7.41214 89.0688 8.64485 88.5882 10.1061C88.1976 11.2937 87.9256 12.0971 87.9256 12.0971C87.9256 12.0971 87.9307 8.89263 87.9354 7.67713C87.9374 7.21856 87.6229 7.06576 87.5281 7.03806C87.1012 6.91434 86.2601 6.70734 85.903 6.70734C85.4625 6.70734 85.3547 6.9534 85.3547 7.31217C85.3547 7.35932 85.2851 11.5312 85.2851 14.4484C85.2851 14.5753 85.2853 14.7134 85.2858 14.8604C85.0422 16.2011 84.252 18.0213 83.3927 18.0213C82.5324 18.0213 82.1264 17.2604 82.1264 13.7825C82.1264 11.7538 82.1874 10.8714 82.2173 9.40403C82.2347 8.55882 82.2682 7.90977 82.2663 7.76248C82.26 7.31079 81.4789 7.08314 81.1155 6.999C80.7504 6.91434 80.4331 6.8813 80.1853 6.89541C79.8346 6.91537 79.5865 7.14526 79.5865 7.4617C79.5865 7.63153 79.5884 7.95399 79.5884 7.95399C79.1367 7.2442 78.4102 6.75019 77.9269 6.60702C76.625 6.22038 75.2665 6.56315 74.2418 7.99684C73.4274 9.13611 72.9365 10.4265 72.7433 12.2804C72.602 13.6358 72.6481 15.0101 72.8992 16.1724C72.5958 17.4839 72.0326 18.0213 71.4159 18.0213C70.5206 18.0213 69.8716 16.5601 69.947 14.0327C69.9967 12.3705 70.3293 11.2039 70.6929 9.51622C70.8479 8.79679 70.722 8.42013 70.406 8.05912C70.1163 7.72806 69.4989 7.55892 68.6114 7.76695C67.9792 7.91527 67.0753 8.07478 66.2483 8.1973C66.2483 8.1973 66.2982 7.99821 66.3392 7.64719C66.5543 5.80638 64.5539 5.95574 63.9157 6.5437C63.5348 6.89473 63.2755 7.30873 63.177 8.0531C63.021 9.23436 63.9844 9.79153 63.9844 9.79153C63.6683 11.2386 62.8935 13.1287 62.0935 14.4952C61.665 15.2274 61.3373 15.7699 60.9141 16.3467C60.9126 16.132 60.9114 15.9171 60.9107 15.7033C60.9011 12.6613 60.9415 10.2673 60.9594 9.4042C60.9768 8.55899 61.0107 7.92715 61.0088 7.77986C61.004 7.44965 60.8111 7.32473 60.4098 7.16677C60.055 7.02705 59.6355 6.93034 59.2003 6.89662C58.6511 6.85394 58.3202 7.14509 58.3288 7.48957C58.3305 7.55461 58.3305 7.95399 58.3305 7.95399C57.8788 7.2442 57.1523 6.75019 56.669 6.60702C55.3671 6.22055 54.0086 6.56315 52.9839 7.99684C52.1697 9.13611 51.6365 10.7348 51.4854 12.2662C51.3446 13.6936 51.3706 14.9063 51.5625 15.9282C51.3555 16.9514 50.7603 18.0213 50.0873 18.0213C49.227 18.0213 48.7374 17.2604 48.7374 13.7825C48.7374 11.7538 48.7983 10.8714 48.8283 9.4042C48.8456 8.55899 48.8792 7.90977 48.8773 7.76265C48.8709 7.31096 48.0899 7.08331 47.7265 6.999C47.3462 6.91107 47.0179 6.87872 46.7658 6.89748C46.4332 6.92208 46.1994 7.21994 46.1994 7.44208V7.95399C45.7477 7.2442 45.0212 6.75019 44.5379 6.60702C43.236 6.22055 41.8851 6.56865 40.8528 7.99684C40.1797 8.92808 39.6347 9.9605 39.3542 12.2459C39.2732 12.9063 39.2374 13.5249 39.2421 14.1029C38.9736 15.7446 37.7881 17.6366 36.8183 17.6366C36.2508 17.6366 35.7103 16.5358 35.7103 14.19C35.7103 11.0652 35.9037 6.61632 35.9364 6.18752C35.9364 6.18752 37.1617 6.1667 37.399 6.16394C38.0102 6.15723 38.5638 6.17169 39.3778 6.13004C39.7861 6.10922 40.1795 4.64387 39.7581 4.46251C39.5671 4.38043 38.2172 4.30851 37.6821 4.29715C37.2321 4.287 35.9794 4.19425 35.9794 4.19425C35.9794 4.19425 36.0918 1.24118 36.118 0.92922C36.1401 0.669222 35.8038 0.535351 35.6109 0.454134C35.1418 0.255737 34.7221 0.160754 34.2247 0.0582002C33.5374 -0.0835857 33.2256 0.0551029 33.1647 0.635152C33.073 1.51546 33.0255 4.09394 33.0255 4.09394C32.5212 4.09394 30.7984 3.99534 30.2939 3.99534C29.8252 3.99534 29.3193 6.01114 29.9673 6.03592C30.7129 6.06483 32.0122 6.08995 32.8736 6.11576C32.8736 6.11576 32.8352 10.6381 32.8352 12.0345C32.8352 12.183 32.8359 12.326 32.8367 12.4648C32.3627 14.9356 30.6929 16.2703 30.6929 16.2703C31.0515 14.6357 30.319 13.4081 28.9996 12.369C28.5135 11.9861 27.5538 11.2612 26.4801 10.4667C26.4801 10.4667 27.102 9.85399 27.6535 8.62076C28.0442 7.74716 28.0611 6.74778 27.102 6.52736C25.5172 6.16291 24.2105 7.32679 23.8208 8.56931C23.5188 9.53205 23.6799 10.2461 24.2714 10.9881C24.3146 11.0423 24.3614 11.0977 24.4098 11.1535C24.052 11.843 23.5606 12.7713 23.1444 13.4912C21.9891 15.49 21.1163 17.071 20.4568 17.071C19.9296 17.071 19.9366 15.4657 19.9366 13.9629C19.9366 12.6673 20.0323 10.7195 20.1087 8.70284C20.134 8.0359 19.8005 7.65596 19.2415 7.31182C18.9018 7.10276 18.1769 6.69168 17.757 6.69168C17.1286 6.69168 15.3155 6.7772 13.6024 11.7327C13.3864 12.3573 12.9623 13.4953 12.9623 13.4953L12.9989 7.5362C12.9989 7.39648 12.9244 7.26141 12.7541 7.16901C12.4653 7.01225 11.6943 6.69168 11.0088 6.69168C10.6822 6.69168 10.5191 6.84362 10.5191 7.14646L10.4593 16.4696C10.4593 17.1782 10.4778 18.0044 10.5478 18.3658C10.6177 18.7277 10.7307 19.0221 10.8706 19.1972C11.0105 19.3721 11.1722 19.5054 11.4388 19.5605C11.6869 19.6116 13.0459 19.7861 13.1165 19.2668C13.2011 18.6444 13.2044 17.9712 13.918 15.4607C15.0288 11.5522 16.477 9.6451 17.158 8.96783C17.2771 8.84944 17.4131 8.84239 17.4065 9.03614C17.3774 9.89305 17.2752 12.0345 17.2064 13.8534C17.0219 18.7216 17.9076 19.624 19.1732 19.624C20.1414 19.624 21.5063 18.6619 22.9694 16.2266C23.8815 14.709 24.7672 13.2209 25.4035 12.1484C25.8469 12.5589 26.3445 13.0006 26.8418 13.4726C27.9974 14.5694 28.3769 15.6116 28.1251 16.6003C27.9326 17.3563 27.2075 18.1352 25.9169 17.3781C25.5408 17.1572 25.3803 16.9865 25.002 16.7375C24.7988 16.6038 24.4886 16.5637 24.3026 16.7039C23.8194 17.0682 23.5431 17.5316 23.3853 18.1053C23.2318 18.6635 23.7908 18.9586 24.3704 19.2167C24.8694 19.4388 25.9419 19.6401 26.6259 19.663C29.2909 19.7522 31.4258 18.3763 32.9119 14.8272C33.178 17.8924 34.3102 19.6267 36.2773 19.6267C37.5924 19.6267 38.911 17.9268 39.4876 16.2545C39.6531 16.9362 39.8982 17.529 40.2146 18.0304C41.7304 20.432 44.6709 19.9151 46.1479 17.8757C46.6046 17.2456 46.6741 17.0192 46.6741 17.0192C46.8896 18.9448 48.4402 19.6176 49.3281 19.6176C50.3225 19.6176 51.3493 19.1475 52.0689 17.5275C52.1532 17.7033 52.2452 17.8713 52.3457 18.0304C53.8615 20.432 56.802 19.9151 58.2791 17.8757C58.3487 17.7801 58.4091 17.6933 58.462 17.6154L58.5053 18.8803C58.5053 18.8803 57.6627 19.6532 57.1455 20.1274C54.866 22.2166 53.1345 23.8011 53.0072 25.6464C52.8451 27.9993 54.7521 28.8738 56.1972 28.9884C57.7289 29.11 59.043 28.2631 59.8495 27.0779C60.5593 26.0346 61.0239 23.7893 60.9898 21.5716C60.9763 20.6836 60.9539 19.5545 60.9363 18.3441C61.7365 17.4149 62.6379 16.2404 63.468 14.8659C64.3726 13.3678 65.342 11.356 65.8384 9.79032C65.8384 9.79032 66.6807 9.79755 67.5796 9.7387C67.8672 9.71995 67.9497 9.77862 67.8966 9.98941C67.8324 10.2441 66.7609 14.3769 67.7388 17.13C68.4081 19.0147 69.917 19.621 70.8116 19.621C71.8588 19.621 72.8606 18.8302 73.3975 17.6558C73.4622 17.7868 73.5298 17.9134 73.6036 18.0304C75.1194 20.432 78.0496 19.912 79.537 17.8757C79.8727 17.4163 80.0631 17.0192 80.0631 17.0192C80.3823 19.0121 81.9322 19.6278 82.8199 19.6278C83.7446 19.6278 84.6221 19.2487 85.3342 17.5639C85.3639 18.3057 85.4107 18.9123 85.4847 19.1035C85.5298 19.2205 85.7926 19.3672 85.9837 19.4381C86.8296 19.7518 87.6924 19.6035 88.0116 19.539C88.2327 19.4942 88.4051 19.3168 88.4287 18.8588C88.4906 17.656 88.4526 15.6352 88.8172 14.1332C89.4293 11.6127 90.0002 10.635 90.271 10.151C90.4226 9.8798 90.5937 9.83506 90.5999 10.1221C90.6126 10.7028 90.6415 12.4082 90.8786 14.6995C91.0528 16.3846 91.2854 17.3807 91.4642 17.6959C91.9744 18.5974 92.6045 18.6401 93.1176 18.6401C93.444 18.6401 94.1266 18.5499 94.0655 17.9762C94.0358 17.6966 94.0879 15.9685 94.6914 13.4854C95.0854 11.8638 95.7424 10.3988 95.9793 9.86294C96.0667 9.6654 96.1073 9.82112 96.1059 9.85141C96.056 10.9681 95.944 14.6209 96.399 16.6186C97.0157 19.3249 98.7997 19.6278 99.4214 19.6278C100.749 19.6278 101.834 18.6182 102.2 15.9618C102.288 15.3226 102.157 14.8289 101.767 14.8289V14.8289Z" fill="#343433"/>
</svg>
