<svg width="24" height="24" viewBox="0 0 24 24" fill="none" xmlns="http://www.w3.org/2000/svg">
<path d="M17.5135 0C15.9051 0.000932114 14.3547 0.698457 13.165 1.95643C12.7128 2.43125 12.3206 2.97797 12 3.58038C11.6793 2.97788 11.2871 2.43093 10.835 1.95568C9.64503 0.698228 8.09475 0.00101553 6.48649 0C2.90984 0 0 3.3821 0 7.53924C0 10.3453 0.751135 12.5604 2.51092 14.9465C5.06789 18.4146 11.5395 23.7071 11.8138 23.931C11.8682 23.9759 11.9333 24 12 24C12.0667 24 12.1318 23.9759 12.1862 23.931C12.4605 23.7071 18.9321 18.4146 21.4897 14.9465C23.2489 12.5604 24 10.3453 24 7.53924C24 3.3821 21.0902 0 17.5135 0ZM20.9974 14.4565C18.7304 17.5295 13.0969 22.2528 12 23.1605C10.9031 22.2528 5.26962 17.5295 3.00324 14.4565C1.35243 12.2181 0.648649 10.1493 0.648649 7.53924C0.648649 3.79751 3.26789 0.753924 6.48649 0.753924C7.93103 0.753924 9.32108 1.37893 10.3991 2.51434C10.94 3.08283 11.3844 3.76406 11.7094 4.52279C11.8197 4.77912 12.1803 4.77912 12.2906 4.52279C12.6155 3.76418 13.0599 3.08317 13.6009 2.51509C14.6712 1.38274 16.0662 0.754803 17.5135 0.753924C20.7321 0.753924 23.3514 3.79751 23.3514 7.53924C23.3514 10.1493 22.6476 12.2181 20.9974 14.4565Z" fill="black"/>
</svg>
