<svg width="24" height="24" viewBox="0 0 24 24" fill="none" xmlns="http://www.w3.org/2000/svg">
<path d="M12 2.39999C13.2941 2.40002 14.5749 2.66169 15.7653 3.16929C16.9557 3.67689 18.0312 4.41992 18.9271 5.35375C19.823 6.28757 20.5209 7.3929 20.9788 8.6033C21.4367 9.8137 21.6451 11.1042 21.5916 12.3972C21.2775 11.929 20.8584 11.5407 20.3676 11.2632C20.2197 9.58858 19.5728 7.99687 18.5104 6.69394C17.448 5.39102 16.0192 4.43684 14.4086 3.95482C12.7981 3.4728 11.08 3.48512 9.47651 3.99019C7.87304 4.49526 6.45801 5.46984 5.41446 6.78786C4.37091 8.10589 3.74684 9.70672 3.62299 11.3833C3.49914 13.0598 3.88119 14.735 4.71974 16.1921C5.55829 17.6491 6.81475 18.8211 8.3266 19.5563C9.83844 20.2915 11.5361 20.5561 13.2 20.316V21.528C11.9007 21.688 10.5825 21.5806 9.32629 21.2123C8.07009 20.8441 6.90246 20.2228 5.8952 19.3867C4.88793 18.5506 4.06231 17.5173 3.46908 16.3504C2.87585 15.1835 2.52755 13.9075 2.44559 12.601C2.36362 11.2945 2.54973 9.98508 2.99247 8.75316C3.4352 7.52123 4.12522 6.39287 5.02009 5.43744C5.91496 4.482 6.99578 3.71968 8.19612 3.19733C9.39645 2.67498 10.6909 2.40364 12 2.39999V2.39999ZM20.364 12.774C20.76 13.2012 21 13.7724 21 14.4V15.6H21.6C21.9183 15.6 22.2235 15.7264 22.4485 15.9515C22.6736 16.1765 22.8 16.4817 22.8 16.8V21.6C22.8 21.9183 22.6736 22.2235 22.4485 22.4485C22.2235 22.6736 21.9183 22.8 21.6 22.8H15.6C15.2817 22.8 14.9765 22.6736 14.7515 22.4485C14.5264 22.2235 14.4 21.9183 14.4 21.6V16.8C14.4 16.4817 14.5264 16.1765 14.7515 15.9515C14.9765 15.7264 15.2817 15.6 15.6 15.6H16.2V14.4C16.2003 13.9172 16.3461 13.4457 16.6186 13.0471C16.891 12.6485 17.2773 12.3414 17.727 12.1658C18.1767 11.9901 18.669 11.9542 19.1394 12.0628C19.6099 12.1713 20.0366 12.4191 20.364 12.774ZM17.4 15.6H19.8V14.4C19.8 14.0817 19.6736 13.7765 19.4485 13.5515C19.2235 13.3264 18.9183 13.2 18.6 13.2C18.2817 13.2 17.9765 13.3264 17.7515 13.5515C17.5264 13.7765 17.4 14.0817 17.4 14.4V15.6ZM17.814 19.6392C17.9305 19.8477 18.125 20.0013 18.3548 20.0663C18.5845 20.1314 18.8307 20.1025 19.0392 19.986C19.2477 19.8695 19.4013 19.675 19.4663 19.4452C19.5314 19.2154 19.5025 18.9693 19.386 18.7608C19.2695 18.5523 19.075 18.3987 18.8452 18.3336C18.6155 18.2686 18.3693 18.2975 18.1608 18.414C17.9523 18.5305 17.7987 18.725 17.7336 18.9548C17.6686 19.1845 17.6975 19.4307 17.814 19.6392V19.6392ZM16.0296 9.17519C16.129 9.27447 16.1904 9.40548 16.2031 9.54538C16.2158 9.68529 16.1791 9.82522 16.0992 9.94079L16.0296 10.0248L11.2248 14.8296C11.1255 14.929 10.9945 14.9904 10.8546 15.0031C10.7147 15.0158 10.5748 14.9791 10.4592 14.8992L10.3752 14.8296L7.9752 12.4296C7.8689 12.3238 7.80609 12.182 7.79915 12.0321C7.79222 11.8823 7.84166 11.7353 7.93773 11.6201C8.0338 11.5049 8.16953 11.4299 8.31818 11.4098C8.46682 11.3897 8.6176 11.426 8.7408 11.5116L8.8248 11.5812L10.8 13.5576L15.1812 9.17519C15.2937 9.06271 15.4463 8.99952 15.6054 8.99952C15.7645 8.99952 15.9171 9.06271 16.0296 9.17519V9.17519Z" fill="black"/>
</svg>
