<svg width="103" height="29" viewBox="0 0 103 29" fill="none" xmlns="http://www.w3.org/2000/svg">
<g clip-path="url(#clip0_4_2)">
<path d="M5.4572 0.179165C3.35555 1.04837 1.0455 3.50086 0.315846 6.58161C-0.608338 10.4837 3.23686 12.1343 3.5525 11.5938C3.92366 10.958 2.86348 10.7431 2.64521 8.71827C2.36317 6.10311 3.59454 3.18106 5.14437 1.89891C5.43205 1.66055 5.41857 1.99226 5.41857 2.60543C5.41857 3.70207 5.35721 13.547 5.35721 15.6016C5.35721 18.3816 5.24093 19.2596 5.03192 20.1272C4.82049 21.0061 4.4801 21.6002 4.7378 21.8291C5.02588 22.0849 6.25585 21.4761 6.9678 20.4951C7.82157 19.3184 8.12051 17.9049 8.17422 16.3705C8.239 14.5205 8.23618 11.5847 8.239 9.91025C8.24141 8.37465 8.26515 3.87786 8.21164 1.1745C8.19856 0.511076 6.33612 -0.184527 5.4572 0.179165M80.0805 13.19C80.0127 14.6355 79.6886 15.7651 79.2865 16.562C78.5079 18.1047 76.8925 18.5836 76.2065 16.3661C75.8327 15.1573 75.8152 13.1384 76.0838 11.4514C76.3574 9.73308 77.1215 8.43523 78.3862 8.55222C79.6339 8.66802 80.2179 10.2553 80.0805 13.1902V13.19ZM-15.5753 9.14652C-15.5922 11.548 -15.9751 13.6534 -16.7958 14.2652C-17.9602 15.1324 -19.5251 14.4817 -19.201 12.7294C-18.9144 11.1787 -17.5583 9.59503 -15.5719 7.65997C-15.5719 7.65997 -15.5679 8.10133 -15.5753 9.14652ZM-15.8932 0.165062C-15.9644 1.48158 -16.31 2.80386 -16.6872 3.55111C-17.4657 5.09387 -19.0928 5.57614 -19.7671 3.35526C-20.2282 1.83773 -20.1178 -0.125931 -19.8899 -1.3634C-19.5937 -2.96892 -18.876 -4.45845 -17.5874 -4.45845C-16.3345 -4.45845 -15.7165 -3.10121 -15.8932 0.165062V0.165062ZM-28.0772 0.145199C-28.1536 1.53919 -28.429 2.70455 -28.871 3.55111C-29.6708 5.08334 -31.2533 5.56919 -31.9509 3.35526C-32.454 1.75887 -32.2829 -0.417719 -32.0736 -1.59361C-31.763 -3.33857 -30.9853 -4.57564 -29.7712 -4.45845C-28.5242 -4.33808 -27.918 -2.7556 -28.0772 0.145199V0.145199ZM27.7587 1.77357C27.4539 1.77357 27.3147 2.08383 27.1994 2.60583C26.8005 4.4221 26.3807 4.83188 25.8397 4.83188C25.2352 4.83188 24.692 3.93288 24.5522 2.13289C24.4426 0.717452 24.4603 -1.88818 24.6005 -4.4801C24.6293 -5.01263 24.4804 -5.5396 23.0338 -6.05842C22.4114 -6.28168 21.5065 -6.61041 21.0559 -5.53662C19.783 -2.50274 19.2849 -0.0941494 19.1677 0.883905C19.1616 0.934556 19.0987 0.945083 19.0878 0.826699C19.013 0.0431036 18.8462 -1.38107 18.8253 -4.37284C18.8212 -4.95662 18.6961 -5.45339 18.0435 -5.86018C17.62 -6.12436 16.3344 -6.59114 15.8715 -6.03557C15.4703 -5.58151 15.0056 -4.35914 14.523 -2.90993C14.1307 -1.73205 13.8575 -0.935547 13.8575 -0.935547C13.8575 -0.935547 13.8628 -4.11323 13.8674 -5.31872C13.8694 -5.77338 13.5536 -5.92494 13.4582 -5.95235C13.0297 -6.0751 12.1848 -6.28029 11.8263 -6.28029C11.3837 -6.28029 11.2755 -6.03637 11.2755 -5.68042C11.2755 -5.63375 11.2057 -1.49668 11.2057 1.39617C11.2057 1.5219 11.2057 1.65896 11.2063 1.80475C10.9617 3.13438 10.168 4.93914 9.30501 4.93914C8.44077 4.93914 8.0332 4.18474 8.0332 0.735925C8.0332 -1.276 8.09436 -2.15097 8.12433 -3.60613C8.14183 -4.44435 8.17563 -5.08791 8.17362 -5.2339C8.16718 -5.68181 7.38301 -5.90766 7.01789 -5.99108C6.65115 -6.0751 6.33249 -6.10788 6.08364 -6.09377C5.73139 -6.07391 5.48214 -5.84608 5.48214 -5.53225C5.48214 -5.36381 5.48415 -5.04401 5.48415 -5.04401C5.03051 -5.74796 4.30086 -6.23778 3.81543 -6.3798C2.50781 -6.76316 1.14346 -6.4235 0.114269 -5.00151C-0.703696 -3.8719 -1.19677 -2.59212 -1.3909 -0.753801C-1.53272 0.590329 -1.48646 1.95313 -1.23419 3.10578C-1.53896 4.40641 -2.10446 4.93914 -2.72386 4.93914C-3.6231 4.93914 -4.2749 3.49033 -4.19926 0.984014C-4.14936 -0.664417 -3.81522 -1.82124 -3.45009 -3.4949C-3.29438 -4.20838 -3.42092 -4.5818 -3.73817 -4.93973C-4.02927 -5.26807 -4.64948 -5.43591 -5.54067 -5.22973C-6.17557 -5.08255 -7.08346 -4.92424 -7.9141 -4.80268C-7.9141 -4.80268 -7.86381 -5.00031 -7.82277 -5.34831C-7.60671 -7.17373 -9.61581 -7.02575 -10.2569 -6.44277C-10.6394 -6.09457 -10.8999 -5.684 -10.9987 -4.94589C-11.1556 -3.77437 -10.1879 -3.22178 -10.1879 -3.22178C-10.5052 -1.78688 -11.2835 0.0873977 -12.087 1.44265C-12.5173 2.16864 -12.8464 2.70673 -13.2715 3.27859C-13.2854 0.983653 -13.2702 -1.31137 -13.226 -3.60593C-13.2085 -4.44415 -13.1745 -5.07063 -13.1764 -5.21682C-13.1812 -5.54416 -13.3749 -5.66811 -13.7779 -5.82463C-14.1343 -5.96327 -14.5556 -6.05901 -14.9927 -6.09278C-15.5443 -6.13489 -15.8767 -5.84628 -15.8678 -5.50464C-15.8662 -5.44008 -15.8662 -5.04401 -15.8662 -5.04401C-16.3199 -5.74796 -17.0495 -6.23778 -17.5349 -6.3798C-18.8426 -6.76316 -20.2069 -6.4235 -21.2361 -5.00151C-22.0539 -3.8719 -22.5894 -2.28643 -22.7413 -0.767705C-22.8825 0.647535 -22.8565 1.85024 -22.6638 2.86365C-22.8716 3.87825 -23.4695 4.93934 -24.1452 4.93934C-25.0095 4.93934 -25.5011 4.18474 -25.5011 0.735925C-25.5011 -1.276 -25.44 -2.15097 -25.4098 -3.60613C-25.3923 -4.44415 -25.3587 -5.08791 -25.3605 -5.2339C-25.367 -5.68181 -26.1513 -5.90746 -26.5165 -5.99108C-26.8983 -6.07848 -27.228 -6.11026 -27.4813 -6.09179C-27.8152 -6.06736 -28.0502 -5.77199 -28.0502 -5.55171V-5.04401C-28.5038 -5.74796 -29.2335 -6.23778 -29.7189 -6.3798C-31.0265 -6.76316 -32.3832 -6.41794 -33.4201 -5.00151C-34.096 -4.07808 -34.6434 -3.05434 -34.925 -0.787965C-35.0065 -0.133082 -35.0425 0.480487 -35.0377 1.05353C-35.3073 2.68151 -36.4982 4.55777 -37.4721 4.55777C-38.042 4.55777 -38.585 3.4661 -38.585 1.13994C-38.585 -1.95869 -38.3906 -6.37066 -38.3576 -6.79573C-38.3576 -6.79573 -37.1271 -6.81639 -36.8889 -6.81917C-36.2749 -6.82592 -35.7191 -6.81142 -34.9013 -6.85294C-34.4913 -6.8734 -34.0962 -8.32677 -34.5195 -8.50653C-34.7114 -8.58797 -36.0671 -8.65908 -36.6046 -8.6704C-37.0565 -8.68034 -38.3146 -8.7725 -38.3146 -8.7725C-38.3146 -8.7725 -38.2017 -11.7009 -38.1754 -12.0102C-38.1532 -12.2682 -38.4912 -12.4009 -38.6847 -12.4813C-39.1559 -12.678 -39.5773 -12.7723 -40.0769 -12.874C-40.7673 -13.0146 -41.0803 -12.877 -41.1415 -12.302C-41.2336 -11.429 -41.2813 -8.87201 -41.2813 -8.87201C-41.7878 -8.87201 -43.5183 -8.96974 -44.0248 -8.96974C-44.4956 -8.96974 -45.0038 -6.97073 -44.3528 -6.9461C-43.604 -6.91749 -42.299 -6.89246 -41.434 -6.86704C-41.434 -6.86704 -41.4726 -2.38237 -41.4726 -0.99752C-41.4726 -0.850534 -41.4718 -0.708514 -41.471 -0.570863C-41.9471 1.87924 -43.6241 3.20291 -43.6241 3.20291C-43.264 1.58189 -43.9997 0.364487 -45.3248 -0.666006C-45.8131 -1.04559 -46.7769 -1.76443 -47.8552 -2.5522C-47.8552 -2.5522 -47.2307 -3.16001 -46.6767 -4.38277C-46.2844 -5.2492 -46.2673 -6.24016 -47.2307 -6.45886C-48.8224 -6.82036 -50.1346 -5.66612 -50.5261 -4.43382C-50.8295 -3.4792 -50.6677 -2.77109 -50.0735 -2.03536C-50.0302 -1.98153 -49.983 -1.92651 -49.9347 -1.87129C-50.2938 -1.18761 -50.7874 -0.266959 -51.2055 0.446918C-52.3658 2.42925 -53.2423 3.99684 -53.9048 3.99684C-54.4343 3.99684 -54.4272 2.40501 -54.4272 0.914693C-54.4272 -0.370047 -54.3311 -2.30173 -54.2542 -4.30134C-54.2289 -4.96277 -54.564 -5.33957 -55.1253 -5.68082C-55.4665 -5.88819 -56.1945 -6.29578 -56.6162 -6.29578C-57.2475 -6.29578 -59.0685 -6.21097 -60.7889 -1.29686C-61.0058 -0.677527 -61.4318 0.45109 -61.4318 0.45109L-61.395 -5.45836C-61.395 -5.597 -61.4699 -5.73088 -61.6411 -5.82244C-61.931 -5.97797 -62.7053 -6.29578 -63.3939 -6.29578C-63.7218 -6.29578 -63.8857 -6.14522 -63.8857 -5.84489L-63.9457 3.40055C-63.9457 4.1031 -63.9272 4.92265 -63.8568 5.28098C-63.7868 5.63971 -63.6731 5.93169 -63.5327 6.10529C-63.3921 6.2787 -63.2297 6.41119 -62.962 6.46561C-62.7127 6.51626 -61.348 6.68927 -61.2769 6.17442C-61.1921 5.55708 -61.1886 4.88968 -60.4721 2.40005C15.2669 11.5348 16.7214 9.64389 17.4054 8.97212C17.5251 8.85493 17.6615 8.84778 17.6549 9.03986C17.6259 9.8896 17.5231 12.0134 17.4541 13.8169C17.2688 18.6446 18.1582 19.5394 19.4294 19.5394C20.4018 19.5394 21.7726 18.5854 23.242 16.1705C24.0607 14.8247 24.8757 13.4766 25.6868 12.1264C26.132 12.5334 26.6319 12.9713 27.1313 13.4393C28.292 14.527 28.673 15.5607 28.4202 16.5411C28.227 17.2906 27.4986 18.063 26.2024 17.3124C25.8246 17.0933 25.6633 16.9239 25.2835 16.677C25.0795 16.5445 24.7679 16.5048 24.581 16.6438C24.0958 17.0049 23.8182 17.4646 23.6596 18.0334C23.5055 18.587 24.067 18.8796 24.6492 19.1356C25.1503 19.3559 26.2276 19.5555 26.9144 19.5782C29.591 19.6666 31.7353 18.3022 33.228 14.7827C33.4951 17.8223 34.6321 19.5422 36.6079 19.5422C37.9287 19.5422 39.2531 17.8565 39.8322 16.1981C39.9984 16.874 40.2446 17.462 40.5625 17.9591C42.0848 20.3407 45.038 19.8283 46.5214 17.8058C46.9801 17.1809 47.0499 16.9565 47.0499 16.9565C47.2663 18.8659 48.8238 19.5331 49.7154 19.5331C50.7142 19.5331 51.7452 19.0669 52.468 17.4604C52.5527 17.6348 52.6453 17.8014 52.7463 17.9591C54.2685 20.3407 57.2219 19.8283 58.7054 17.8058C58.7754 17.7109 58.8361 17.625 58.889 17.5476L58.9325 18.8019L57.5667 20.0388C55.2774 22.1105 53.5385 23.6817 53.4105 25.5117C53.2476 27.845 55.1631 28.7122 56.6144 28.8258C58.1528 28.9464 59.4726 28.1066 60.2826 26.9313C60.9955 25.8966 61.4622 23.67 61.4278 21.4709C61.4144 20.5902 61.3916 19.4705 61.3741 18.2702C62.1778 17.3488 63.0833 16.184 63.9169 14.821C64.8254 13.3354 65.7991 11.3404 66.2976 9.7877C66.2976 9.7877 67.1435 9.79505 68.0464 9.73665C68.3351 9.71798 68.4182 9.77638 68.3646 9.98514C68.3003 10.2378 67.224 14.3361 68.2063 17.0663C68.8784 18.9354 70.3939 19.5365 71.2923 19.5365C72.3442 19.5365 73.3503 18.7523 73.8894 17.5879C73.9546 17.7176 74.0224 17.8431 74.0966 17.9593C75.6189 20.3409 78.5618 19.8251 80.0557 17.8058C80.3929 17.3501 80.5842 16.9565 80.5842 16.9565C80.9047 18.9328 82.4614 19.5432 83.353 19.5432C84.2816 19.5432 85.1631 19.1672 85.8781 17.4965C85.9082 18.2323 85.9551 18.8337 86.0293 19.0232C86.0746 19.1394 86.3385 19.2848 86.5305 19.3551C87.3802 19.6662 88.2465 19.5192 88.5671 19.4552C88.7892 19.4107 88.9624 19.2347 88.9862 18.7807C89.0485 17.5879 89.0103 15.5839 89.3764 14.0944C89.991 11.595 90.5646 10.6255 90.8365 10.1456C90.9888 9.87649 91.1604 9.83219 91.1667 10.1168C91.1795 10.6929 91.2085 12.3838 91.4467 14.6561C91.6217 16.327 91.8551 17.3148 92.0347 17.6276C92.5473 18.5215 93.18 18.5638 93.6954 18.5638C94.0233 18.5638 94.7089 18.4744 94.6475 17.9055C94.6176 17.6282 94.6699 15.9144 95.276 13.452C95.6717 11.8439 96.3316 10.3911 96.5695 9.8598C96.6575 9.66395 96.6983 9.81829 96.6967 9.84848C96.6466 10.9558 96.5341 14.5781 96.991 16.5592C97.6106 19.2429 99.4022 19.5432 100.027 19.5432C101.36 19.5432 102.45 18.5421 102.817 15.9079C102.905 15.2739 102.774 14.7844 102.382 14.7844L27.7587 1.77357Z" fill="#343433"/>
</g>
<defs>
<clipPath id="clip0_4_2">
<rect width="103" height="29" fill="white"/>
</clipPath>
</defs>
</svg>
