<svg width="159" height="90" viewBox="0 0 159 90" fill="none" xmlns="http://www.w3.org/2000/svg">
<path d="M154.383 82.9117H0.798785C0.731744 82.9117 0.667448 82.8851 0.620042 82.8377C0.572637 82.7903 0.546005 82.726 0.546005 82.6589C0.546005 82.5919 0.572637 82.5276 0.620042 82.4802C0.667448 82.4328 0.731744 82.4062 0.798785 82.4062H154.383C154.45 82.4062 154.514 82.4328 154.561 82.4802C154.609 82.5276 154.635 82.5919 154.635 82.6589C154.635 82.726 154.609 82.7903 154.561 82.8377C154.514 82.8851 154.45 82.9117 154.383 82.9117Z" fill="#D1D3D4"/>
<path d="M98.8469 0.262894H7.65922C3.56875 0.262894 0.252777 3.57887 0.252777 7.66933V65.93C0.252777 70.0204 3.56875 73.3364 7.65922 73.3364H98.8469C102.937 73.3364 106.253 70.0204 106.253 65.93V7.66933C106.253 3.57887 102.937 0.262894 98.8469 0.262894Z" fill="white"/>
<path d="M98.8469 73.5892H7.65922C5.62869 73.5865 3.68209 72.7787 2.24629 71.3429C0.810485 69.9071 0.00267527 67.9605 0 65.93V7.66428C-4.42034e-07 5.63246 0.80679 3.68379 2.24303 2.2466C3.67927 0.809416 5.6274 0.00134025 7.65922 0H98.8469C100.879 0.00134025 102.827 0.809416 104.263 2.2466C105.699 3.68379 106.506 5.63246 106.506 7.66428V65.93C106.503 67.9605 105.696 69.9071 104.26 71.3429C102.824 72.7787 100.877 73.5865 98.8469 73.5892V73.5892ZM7.65922 0.505559C5.76149 0.506899 3.94194 1.26171 2.60051 2.60409C1.25908 3.94646 0.505559 5.76655 0.505559 7.66428V65.93C0.508234 67.8264 1.26278 69.6444 2.60377 70.9854C3.94476 72.3264 5.76277 73.081 7.65922 73.0836H98.8469C100.743 73.081 102.561 72.3264 103.902 70.9854C105.243 69.6444 105.998 67.8264 106.001 65.93V7.66428C106.001 5.76655 105.247 3.94646 103.906 2.60409C102.564 1.26171 100.745 0.506899 98.8469 0.505559H7.65922Z" fill="#231F20"/>
<path d="M106.435 59.9998H0.581393C0.514352 59.9998 0.450056 59.9731 0.402651 59.9257C0.355245 59.8783 0.328613 59.814 0.328613 59.747C0.328613 59.6799 0.355245 59.6157 0.402651 59.5682C0.450056 59.5208 0.514352 59.4942 0.581393 59.4942H106.435C106.502 59.4942 106.567 59.5208 106.614 59.5682C106.662 59.6157 106.688 59.6799 106.688 59.747C106.688 59.814 106.662 59.8783 106.614 59.9257C106.567 59.9731 106.502 59.9998 106.435 59.9998Z" fill="#231F20"/>
<path d="M53.2708 68.7004C52.7174 68.7014 52.1762 68.5382 51.7156 68.2314C51.2551 67.9246 50.896 67.488 50.6838 66.9769C50.4715 66.4659 50.4157 65.9033 50.5235 65.3605C50.6312 64.8177 50.8975 64.3191 51.2888 63.9278C51.6801 63.5365 52.1787 63.2701 52.7215 63.1624C53.2643 63.0547 53.8269 63.1105 54.3379 63.3227C54.849 63.535 55.2856 63.8941 55.5924 64.3546C55.8992 64.8152 56.0625 65.3564 56.0615 65.9098C56.0601 66.6495 55.7657 67.3585 55.2426 67.8816C54.7195 68.4047 54.0105 68.6991 53.2708 68.7004V68.7004ZM53.2708 63.6448C52.8176 63.6438 52.3743 63.7773 51.997 64.0284C51.6198 64.2794 51.3254 64.6367 51.1513 65.0551C50.9772 65.4735 50.9311 65.9341 51.0189 66.3787C51.1067 66.8233 51.3244 67.2318 51.6445 67.5526C51.9646 67.8734 52.3727 68.0921 52.8171 68.1808C53.2615 68.2696 53.7222 68.2246 54.141 68.0514C54.5597 67.8782 54.9177 67.5846 55.1696 67.2079C55.4215 66.8312 55.5559 66.3882 55.5559 65.935C55.5592 65.6326 55.5026 65.3325 55.3894 65.052C55.2761 64.7716 55.1084 64.5163 54.8959 64.3011C54.6834 64.0858 54.4304 63.9147 54.1515 63.7977C53.8726 63.6808 53.5732 63.6202 53.2708 63.6196V63.6448Z" fill="#D1D3D4"/>
<path d="M72.4466 85.1817H34.0595C32.8924 85.1817 31.9463 86.1278 31.9463 87.2949V87.6134C31.9463 88.7805 32.8924 89.7267 34.0595 89.7267H72.4466C73.6137 89.7267 74.5599 88.7805 74.5599 87.6134V87.2949C74.5599 86.1278 73.6137 85.1817 72.4466 85.1817Z" fill="white"/>
<path d="M72.4466 89.9895H34.0595C33.4329 89.9895 32.8319 89.741 32.3883 89.2983C31.9447 88.8557 31.6949 88.2552 31.6935 87.6286V87.305C31.6935 86.6771 31.9426 86.0747 32.3862 85.6302C32.8298 85.1857 33.4316 84.9353 34.0595 84.934H72.4466C73.0737 84.9353 73.6748 85.185 74.1182 85.6284C74.5616 86.0718 74.8113 86.6729 74.8127 87.3V87.6235C74.8127 88.251 74.5634 88.8528 74.1197 89.2966C73.676 89.7403 73.0741 89.9895 72.4466 89.9895V89.9895ZM34.0595 85.4395C33.5661 85.4395 33.0929 85.6355 32.744 85.9844C32.3951 86.3333 32.1991 86.8065 32.1991 87.3V87.6235C32.1991 88.117 32.3951 88.5902 32.744 88.9391C33.0929 89.288 33.5661 89.484 34.0595 89.484H72.4466C72.9392 89.484 73.4116 89.2887 73.7604 88.9409C74.1092 88.593 74.3058 88.1211 74.3071 87.6286V87.305C74.3071 86.8116 74.1111 86.3384 73.7622 85.9895C73.4133 85.6406 72.9401 85.4446 72.4466 85.4446L34.0595 85.4395Z" fill="#231F20"/>
<path d="M67.7854 85.2575H38.7208L40.7177 73.3364H65.7884L67.7854 85.2575Z" fill="white"/>
<path d="M67.7854 85.5103H38.7208C38.6838 85.5115 38.6471 85.5039 38.6137 85.488C38.5803 85.4722 38.5512 85.4486 38.5287 85.4193C38.5052 85.3917 38.488 85.3593 38.4784 85.3244C38.4688 85.2894 38.467 85.2528 38.4731 85.2171L40.4953 73.296C40.5049 73.237 40.535 73.1834 40.5803 73.1445C40.6257 73.1056 40.6833 73.0841 40.743 73.0836H65.8137C65.8734 73.0841 65.9311 73.1056 65.9764 73.1445C66.0218 73.1834 66.0519 73.237 66.0614 73.296L68.0837 85.2171C68.0888 85.2528 68.0865 85.2892 68.0769 85.324C68.0673 85.3588 68.0507 85.3912 68.0281 85.4193C67.9996 85.4549 67.962 85.4822 67.9193 85.4983C67.8765 85.5143 67.8303 85.5184 67.7854 85.5103V85.5103ZM39.0191 85.0047H67.4871L65.5761 73.5892H40.9351L39.0191 85.0047Z" fill="#231F20"/>
<path d="M39.7218 79.297L66.1878 75.7024L65.7884 73.3364H40.7177L39.7218 79.297Z" fill="#231F20"/>
<path d="M39.7218 79.5497C39.6535 79.5496 39.588 79.5223 39.5398 79.4739C39.5126 79.4453 39.4926 79.4108 39.4811 79.373C39.4697 79.3353 39.4673 79.2954 39.4741 79.2565L40.4852 73.296C40.4947 73.237 40.5249 73.1834 40.5702 73.1445C40.6155 73.1056 40.6732 73.0841 40.7329 73.0836H65.8036C65.8633 73.0841 65.9209 73.1056 65.9663 73.1445C66.0116 73.1834 66.0418 73.237 66.0513 73.296L66.4507 75.662C66.4611 75.7295 66.4448 75.7984 66.4052 75.8541C66.3846 75.881 66.3588 75.9034 66.3292 75.9199C66.2997 75.9365 66.267 75.9468 66.2333 75.9502L39.7673 79.5447L39.7218 79.5497ZM40.9301 73.5892L40.0251 79.0037L65.8946 75.4648L65.5761 73.5639L40.9301 73.5892Z" fill="#231F20"/>
<path d="M61.7338 15.6319H44.7774C43.0658 15.6319 41.6783 17.0194 41.6783 18.731V27.3002C41.6783 29.0118 43.0658 30.3993 44.7774 30.3993H61.7338C63.4454 30.3993 64.8329 29.0118 64.8329 27.3002V18.731C64.8329 17.0194 63.4454 15.6319 61.7338 15.6319Z" fill="#68E1FD"/>
<path d="M59.0392 19.277H47.467C47.2286 19.277 46.9926 19.23 46.7724 19.1388C46.5522 19.0476 46.3521 18.9139 46.1836 18.7454C46.0151 18.5768 45.8814 18.3768 45.7902 18.1566C45.6989 17.9364 45.652 17.7004 45.652 17.462V12.8665C45.652 10.8499 46.4531 8.91587 47.879 7.48992C49.305 6.06396 51.239 5.26287 53.2556 5.26287C55.2722 5.26287 57.2062 6.06396 58.6322 7.48992C60.0581 8.91587 60.8592 10.8499 60.8592 12.8665V17.462C60.8579 17.9438 60.6655 18.4055 60.3244 18.7457C59.9832 19.0859 59.521 19.277 59.0392 19.277V19.277ZM49.287 15.642H57.2192V12.8665C57.2382 12.3337 57.1497 11.8026 56.959 11.3048C56.7682 10.807 56.4791 10.3527 56.109 9.96913C55.7388 9.58551 55.2951 9.2804 54.8045 9.07201C54.3138 8.86362 53.7862 8.75621 53.2531 8.75621C52.72 8.75621 52.1924 8.86362 51.7017 9.07201C51.211 9.2804 50.7674 9.58551 50.3972 9.96913C50.027 10.3527 49.7379 10.807 49.5472 11.3048C49.3564 11.8026 49.2679 12.3337 49.287 12.8665V15.642Z" fill="#68E1FD"/>
<path d="M53.2556 22.9372C54.4813 22.9372 55.475 21.9436 55.475 20.7178C55.475 19.4921 54.4813 18.4984 53.2556 18.4984C52.0299 18.4984 51.0362 19.4921 51.0362 20.7178C51.0362 21.9436 52.0299 22.9372 53.2556 22.9372Z" fill="#231F20"/>
<path d="M52.6338 21.1425H53.8724V26.3042H52.6338V21.1425Z" fill="#231F20"/>
<path d="M89.0037 52.2192H17.5075C15.2281 52.2192 13.0421 51.3137 11.4303 49.7019C9.8185 48.0902 8.91301 45.9041 8.91301 43.6247C8.91301 41.3453 9.8185 39.1593 11.4303 37.5475C13.0421 35.9357 15.2281 35.0302 17.5075 35.0302H89.0037C91.2831 35.0302 93.4692 35.9357 95.0809 37.5475C96.6927 39.1593 97.5982 41.3453 97.5982 43.6247C97.5982 45.9041 96.6927 48.0902 95.0809 49.7019C93.4692 51.3137 91.2831 52.2192 89.0037 52.2192ZM17.5075 35.5358C15.3622 35.5358 13.3047 36.388 11.7878 37.905C10.2708 39.4219 9.41857 41.4794 9.41857 43.6247C9.41857 45.77 10.2708 47.8275 11.7878 49.3445C13.3047 50.8614 15.3622 51.7136 17.5075 51.7136H89.0037C91.149 51.7136 93.2065 50.8614 94.7235 49.3445C96.2404 47.8275 97.0927 45.77 97.0927 43.6247C97.0927 41.4794 96.2404 39.4219 94.7235 37.905C93.2065 36.388 91.149 35.5358 89.0037 35.5358H17.5075Z" fill="#D1D3D4"/>
<path d="M38.6096 44.2769L39.7016 45.7177L38.4882 46.562L37.4013 45.0959L36.3345 46.5114L35.1515 45.6621L36.2435 44.2617L34.5044 43.6854L34.9746 42.3355L36.6884 42.927V41.1778H38.1647V42.927L39.8785 42.3911L40.3335 43.7359L38.6096 44.2769Z" fill="black"/>
<path d="M46.5165 44.2769L47.6085 45.7177L46.3952 46.562L45.3032 45.0959L44.2415 46.5114L43.0585 45.6621L44.1454 44.2617L42.4114 43.6854L42.8815 42.3355L44.5903 42.927V41.1778H46.0716V42.927L47.7804 42.3911L48.2405 43.7359L46.5165 44.2769Z" fill="black"/>
<path d="M54.4487 44.2769L55.5357 45.7177L54.3274 46.562L53.2354 45.0959L52.1687 46.5114L50.9856 45.6621L52.0777 44.2617L50.3385 43.6854L50.8087 42.3355L52.5226 42.927V41.1778H54.0038V42.927L55.7126 42.3911L56.1676 43.7359L54.4487 44.2769Z" fill="black"/>
<path d="M62.3708 44.2769L63.4628 45.7177L62.2495 46.562L61.1575 45.0959L60.0958 46.5114L58.9128 45.6621L59.9998 44.2617L58.2657 43.6854L58.7359 42.3355L60.4447 42.927V41.1778H61.9259V42.927L63.6347 42.3911L64.0948 43.7359L62.3708 44.2769Z" fill="black"/>
<path d="M70.3081 44.2769L71.3951 45.7177L70.1868 46.562L69.0948 45.0959L68.0281 46.5114L66.845 45.6621L67.937 44.2617L66.1979 43.6854L66.6681 42.3355L68.3819 42.927V41.1778H69.8632V42.927L71.572 42.3911L72.027 43.7359L70.3081 44.2769Z" fill="black"/>
<path d="M148.316 79.7722L153.776 54.4538L155.596 41.8654C155.596 41.8654 142.285 27.8058 138.498 23.2557C134.711 18.7057 130.495 12.1334 128.442 12.5429C126.39 12.9524 125.915 15.2477 127.148 18.1496C127.654 19.3427 128.437 20.6774 128.771 21.9008C129.044 22.9119 128.847 25.6824 127.866 26.3497C126.688 27.1485 125.738 23.0535 124.256 23.7208C123.478 24.0747 122.649 26.011 123.245 28.1445C123.604 29.1694 124.063 30.1567 124.615 31.0919C125.748 33.0585 125.712 34.2668 126.405 36.4053C127.098 38.5438 127.022 35.6621 126.213 37.6288C125.237 40.015 123.877 42.7956 123.731 45.4144C123.498 49.6004 128.281 56.567 130.262 59.9492C132.244 63.3314 127.952 72.6438 127.952 72.6438L148.316 79.7722Z" fill="white"/>
<path d="M148.316 80.025C148.289 80.0303 148.262 80.0303 148.235 80.025L127.831 72.8713C127.798 72.8592 127.768 72.8403 127.742 72.816C127.717 72.7916 127.697 72.7622 127.684 72.7298C127.669 72.6981 127.661 72.6636 127.661 72.6286C127.661 72.5937 127.669 72.5592 127.684 72.5275C127.73 72.4365 131.88 63.296 130.01 60.0655C129.686 59.5094 129.287 58.8572 128.852 58.1393C126.617 54.4892 123.245 48.9685 123.447 45.3942C123.569 43.1343 124.58 40.7531 125.47 38.6551C125.631 38.2708 125.793 37.8917 125.945 37.5226C126.027 37.2996 126.14 37.0887 126.279 36.8957C126.228 36.7744 126.183 36.6328 126.127 36.471C125.894 35.743 125.743 35.1313 125.621 34.5449C125.387 33.3743 124.969 32.2482 124.383 31.2082C123.822 30.2436 123.355 29.2279 122.987 28.1748C122.371 25.8947 123.265 23.8573 124.155 23.4579C125.045 23.0586 125.819 24.0646 126.44 24.9746C126.66 25.3392 126.919 25.6783 127.214 25.9857C127.487 26.2385 127.623 26.1779 127.719 26.1071C128.564 25.5358 128.781 22.8968 128.518 21.9413C128.255 21.1019 127.917 20.288 127.507 19.5095C127.3 19.0798 127.087 18.64 126.911 18.2204C126.112 16.3296 125.995 14.6814 126.592 13.554C126.773 13.2163 127.029 12.9243 127.34 12.7001C127.651 12.4759 128.009 12.3253 128.387 12.2598C130.075 11.9312 132.73 15.3842 135.798 19.3882C136.754 20.6319 137.74 21.916 138.69 23.0636C142.426 27.6136 155.657 41.5418 155.788 41.6834C155.815 41.7112 155.835 41.7447 155.848 41.7814C155.86 41.8182 155.864 41.8573 155.859 41.8957L154.034 54.4841L148.574 79.8177C148.566 79.853 148.551 79.8863 148.529 79.9151C148.507 79.9439 148.479 79.9676 148.447 79.9845C148.41 80.013 148.363 80.0273 148.316 80.025ZM128.26 72.4719L148.129 79.4385L153.528 54.4032L155.343 41.9614C154.201 40.7582 141.895 27.7552 138.306 23.4074C137.35 22.2497 136.359 20.9605 135.404 19.7168C132.684 16.1779 129.868 12.5126 128.493 12.7805C128.189 12.8241 127.899 12.9382 127.647 13.1138C127.395 13.2894 127.188 13.5215 127.042 13.7917C126.536 14.7623 126.653 16.3195 127.381 18.0232C127.553 18.4276 127.755 18.8472 127.967 19.2871C128.392 20.0963 128.742 20.9424 129.014 21.8149C129.292 22.826 129.125 25.7785 128.003 26.5368C127.827 26.6566 127.612 26.706 127.401 26.6751C127.191 26.6442 126.999 26.5353 126.865 26.37C126.54 26.0392 126.254 25.6729 126.011 25.278C125.374 24.3427 124.883 23.6905 124.352 23.9332C123.726 24.2163 122.907 26.0009 123.468 28.0585C123.819 29.0631 124.269 30.0302 124.812 30.9453C125.42 32.0272 125.855 33.1973 126.102 34.4134C126.243 34.9948 126.39 35.5964 126.607 36.3042C126.653 36.4407 126.693 36.5519 126.723 36.6379H126.764C126.867 36.6748 126.955 36.744 127.015 36.8352C127.075 36.9263 127.104 37.0344 127.098 37.1434C127.104 37.2219 127.08 37.2998 127.031 37.3616C126.983 37.4234 126.912 37.4647 126.835 37.4771C126.79 37.4865 126.743 37.4854 126.698 37.474C126.654 37.4626 126.612 37.4412 126.577 37.4114C126.522 37.5124 126.475 37.6172 126.435 37.7248C126.279 38.0939 126.117 38.4731 125.955 38.8623C125.08 40.925 124.09 43.2607 123.968 45.4346C123.781 48.8572 127.103 54.292 129.302 57.8916C129.742 58.6145 130.141 59.2667 130.465 59.8279C132.3 62.9725 128.958 70.9199 128.276 72.4719H128.26Z" fill="#231F20"/>
<path d="M118.937 50.7455L139.934 58.1066C140.782 58.4041 141.711 57.9574 142.009 57.109L157.751 12.2054C158.049 11.3569 157.602 10.428 156.754 10.1306L135.757 2.76941C134.908 2.47196 133.98 2.91862 133.682 3.76705L117.94 48.6707C117.642 49.5191 118.089 50.448 118.937 50.7455Z" fill="white"/>
<path d="M140.48 58.4427C140.268 58.4423 140.058 58.4064 139.858 58.3365L118.857 50.9705C118.387 50.8044 118.002 50.4591 117.786 50.0101C117.57 49.5611 117.541 49.0448 117.704 48.5741L133.452 3.67036C133.621 3.20247 133.967 2.81991 134.416 2.60593C134.864 2.39196 135.379 2.36387 135.849 2.5278L156.85 9.89379C157.083 9.97432 157.298 10.1003 157.482 10.2644C157.666 10.4285 157.816 10.6276 157.923 10.8499C158.029 11.0723 158.091 11.3137 158.104 11.56C158.117 11.8064 158.08 12.0528 157.997 12.2851L142.249 57.1838C142.168 57.4169 142.041 57.6316 141.876 57.8155C141.711 57.9994 141.511 58.149 141.289 58.2556C141.036 58.3763 140.76 58.4402 140.48 58.4427V58.4427ZM119.024 50.4953L140.025 57.8562C140.195 57.9169 140.375 57.9433 140.555 57.9339C140.735 57.9245 140.912 57.8795 141.074 57.8015C141.237 57.7234 141.383 57.6139 141.503 57.4792C141.623 57.3446 141.715 57.1875 141.774 57.017L157.522 12.1334C157.642 11.7901 157.621 11.4134 157.464 11.0856C157.306 10.7578 157.026 10.5056 156.683 10.3842L135.677 2.99291C135.333 2.87337 134.956 2.89513 134.628 3.0534C134.3 3.21168 134.048 3.49355 133.928 3.83719L118.185 48.746C118.065 49.0893 118.086 49.4661 118.243 49.7939C118.4 50.1217 118.681 50.3739 119.024 50.4953V50.4953Z" fill="#231F20"/>
<path d="M142.517 51.7136C142.489 51.7185 142.46 51.7185 142.431 51.7136L120.889 44.1606C120.826 44.1378 120.775 44.0909 120.747 44.0302C120.718 43.9695 120.715 43.9001 120.738 43.837L133.685 6.93121C133.695 6.89941 133.711 6.86998 133.733 6.84476C133.755 6.81954 133.781 6.79906 133.811 6.7846C133.875 6.76184 133.945 6.76184 134.009 6.7846L155.545 14.3377C155.609 14.3606 155.66 14.4072 155.689 14.4676C155.719 14.528 155.723 14.5975 155.702 14.6612L142.755 51.567C142.733 51.6305 142.688 51.683 142.628 51.7136C142.592 51.7206 142.554 51.7206 142.517 51.7136V51.7136ZM121.284 43.7511L142.345 51.1373L155.141 14.6915L134.079 7.30533L121.284 43.7511Z" fill="#D1D3D4"/>
<path d="M132.082 53.8875C131.943 53.8883 131.805 53.8661 131.673 53.8218L127.588 52.381C127.275 52.2709 127.019 52.0417 126.875 51.7433C126.731 51.4449 126.711 51.1016 126.82 50.7885L127.371 49.2212C127.481 48.9075 127.711 48.6503 128.01 48.5062C128.31 48.3621 128.654 48.3429 128.968 48.4528L133.063 49.8886C133.377 49.9986 133.634 50.2287 133.778 50.5283C133.922 50.8278 133.942 51.1724 133.832 51.4861L133.281 53.0534C133.194 53.301 133.032 53.515 132.817 53.6648C132.602 53.8146 132.345 53.8926 132.082 53.8875V53.8875ZM128.543 48.8876C128.388 48.8883 128.236 48.9373 128.109 49.0279C127.982 49.1184 127.887 49.246 127.836 49.3931L127.29 50.9604C127.257 51.0526 127.243 51.1505 127.248 51.2483C127.253 51.346 127.277 51.4418 127.32 51.5302C127.362 51.6185 127.421 51.6976 127.494 51.7629C127.567 51.8282 127.652 51.8785 127.745 51.9108L131.845 53.3466C132.031 53.4114 132.236 53.4 132.414 53.3148C132.592 53.2296 132.729 53.0775 132.795 52.8916L133.346 51.3244C133.411 51.1366 133.399 50.9309 133.313 50.7519C133.227 50.573 133.073 50.4353 132.886 50.3689L128.791 48.9331C128.71 48.9051 128.625 48.8898 128.538 48.8876H128.543Z" fill="#D1D3D4"/>
<path d="M149.833 10.364C149.806 10.3688 149.778 10.3688 149.752 10.364L143.614 8.21533C143.551 8.19252 143.5 8.14562 143.471 8.08495C143.443 8.02427 143.44 7.95479 143.463 7.89177C143.484 7.82904 143.53 7.77743 143.59 7.7481C143.649 7.71877 143.718 7.71409 143.781 7.73505L149.919 9.88873C149.986 9.90013 150.045 9.93769 150.085 9.99315C150.124 10.0486 150.14 10.1174 150.128 10.1845C150.117 10.2515 150.079 10.3113 150.024 10.3506C149.968 10.39 149.9 10.4057 149.833 10.3943V10.364Z" fill="#D1D3D4"/>
<path d="M142.881 7.83617H142.795L141.976 7.548C141.942 7.5393 141.91 7.52364 141.883 7.50201C141.855 7.48038 141.833 7.45325 141.816 7.42235C141.8 7.39145 141.79 7.35745 141.787 7.32252C141.784 7.28758 141.789 7.25247 141.8 7.2194C141.812 7.18634 141.83 7.15605 141.854 7.13046C141.878 7.10487 141.907 7.08454 141.939 7.07075C141.972 7.05696 142.006 7.05002 142.041 7.05037C142.077 7.05072 142.111 7.05835 142.143 7.07277L142.967 7.36094C143 7.36658 143.032 7.37871 143.061 7.39663C143.089 7.41454 143.114 7.4379 143.133 7.46536C143.153 7.49283 143.167 7.52386 143.174 7.55669C143.182 7.58952 143.183 7.6235 143.177 7.65669C143.171 7.68989 143.159 7.72165 143.141 7.75016C143.123 7.77867 143.1 7.80337 143.072 7.82285C143.045 7.84233 143.014 7.85621 142.981 7.8637C142.948 7.87119 142.914 7.87214 142.881 7.8665V7.83617Z" fill="#D1D3D4"/>
<path d="M137.947 38.3012C142.277 38.3012 145.788 34.7905 145.788 30.4599C145.788 26.1294 142.277 22.6187 137.947 22.6187C133.616 22.6187 130.106 26.1294 130.106 30.4599C130.106 34.7905 133.616 38.3012 137.947 38.3012Z" fill="#68E1FD"/>
<path d="M130.025 28.1091C129.895 28.5376 129.637 28.9165 129.287 29.1954C128.937 29.4744 128.51 29.6404 128.063 29.6713C126.952 29.7649 125.846 29.4384 124.964 28.7562C124.455 28.374 124.027 27.8945 123.705 27.3457C123.43 26.9401 123.258 26.4739 123.202 25.987C123.147 25.5001 123.21 25.007 123.387 24.55C124.034 23.2507 126.102 23.0333 127.846 23.8624C129.479 24.6511 130.343 26.8856 130.025 28.1091Z" fill="white"/>
<path d="M127.649 29.9493C126.62 29.9215 125.627 29.5674 124.812 28.9382C124.278 28.5352 123.826 28.0321 123.483 27.4569C123.185 27.0163 123 26.5091 122.944 25.9801C122.889 25.451 122.964 24.9165 123.164 24.4236C123.852 23.0383 126.001 22.6794 127.957 23.6197C129.676 24.4488 130.626 26.7795 130.273 28.1698C130.13 28.6487 129.846 29.0731 129.456 29.3864C129.067 29.6998 128.592 29.8873 128.094 29.9241C127.946 29.9402 127.797 29.9486 127.649 29.9493V29.9493ZM125.753 23.6197C124.782 23.6197 123.953 23.9837 123.614 24.6612C123.453 25.0803 123.397 25.5327 123.45 25.9786C123.504 26.4245 123.666 26.8505 123.923 27.2193C124.228 27.7388 124.634 28.1925 125.116 28.554C125.945 29.1992 126.986 29.5095 128.033 29.4235C128.429 29.396 128.808 29.2496 129.12 29.0034C129.433 28.7572 129.663 28.4226 129.782 28.0434C130.055 26.9817 129.322 24.8533 127.76 24.0899C127.135 23.7845 126.449 23.6238 125.753 23.6197V23.6197Z" fill="#231F20"/>
<path d="M127.588 34.0595C127.673 34.3645 127.689 34.6848 127.633 34.9965C127.577 35.3082 127.451 35.6032 127.264 35.8593C127.009 36.1461 126.691 36.3694 126.334 36.5115C125.866 36.7483 125.351 36.8779 124.826 36.891C124.301 36.9041 123.78 36.8004 123.301 36.5873C122.744 36.2512 122.269 35.7953 121.911 35.2526C121.253 34.3527 120.682 33.3012 120.753 32.1839C120.849 30.5762 122.664 28.8017 124.292 29.6207C125.647 30.2931 127.249 32.6288 127.588 34.0595V34.0595Z" fill="white"/>
<path d="M124.63 37.1536C124.124 37.1592 123.625 37.0412 123.174 36.8098C122.581 36.4591 122.076 35.9765 121.698 35.3993C120.813 34.191 120.429 33.1647 120.49 32.1687C120.548 31.6256 120.731 31.1034 121.025 30.6429C121.319 30.1825 121.716 29.7962 122.184 29.5146C122.513 29.3067 122.891 29.1864 123.28 29.1652C123.669 29.1439 124.058 29.2224 124.408 29.3932C125.829 30.101 127.482 32.5176 127.841 33.9989C127.936 34.3422 127.952 34.7028 127.887 35.0532C127.822 35.4036 127.679 35.7346 127.467 36.0211C127.189 36.3377 126.844 36.5867 126.456 36.7491C125.883 37.0112 125.261 37.1491 124.63 37.1536V37.1536ZM123.432 29.6662C123.075 29.6692 122.726 29.7688 122.421 29.9544C122.022 30.1898 121.684 30.5156 121.434 30.9054C121.184 31.2952 121.028 31.7383 120.98 32.1991C120.925 33.0737 121.279 33.9938 122.087 35.101C122.425 35.6121 122.87 36.0435 123.392 36.3649C123.839 36.5639 124.325 36.6596 124.815 36.6447C125.304 36.6298 125.784 36.5048 126.218 36.2789C126.542 36.1554 126.831 35.956 127.062 35.6975C127.224 35.4722 127.332 35.2131 127.378 34.9398C127.425 34.6665 127.408 34.3862 127.33 34.1202C127.007 32.7653 125.449 30.4852 124.17 29.8482C123.942 29.7314 123.689 29.6691 123.432 29.6662V29.6662Z" fill="#231F20"/>
<path d="M125.091 38.468C125.341 38.8164 125.514 39.2147 125.596 39.6358C125.657 40.1144 125.581 40.6005 125.375 41.0368C125.168 41.4731 124.842 41.8413 124.433 42.0979C124.021 42.3457 123.564 42.509 123.089 42.5784C122.613 42.6479 122.128 42.622 121.663 42.5024C121.107 42.3804 120.584 42.1426 120.127 41.8046C119.669 41.4666 119.288 41.036 119.009 40.5408C118.739 40.0395 118.604 39.4769 118.618 38.9079C118.631 38.339 118.792 37.7832 119.084 37.2951C120.717 34.7724 123.811 36.6177 125.091 38.468V38.468Z" fill="white"/>
<path d="M122.598 42.8664C122.266 42.8648 121.935 42.8258 121.612 42.7501C121.021 42.619 120.465 42.3648 119.979 42.0042C119.493 41.6436 119.088 41.1846 118.791 40.6571C118.498 40.1174 118.352 39.5103 118.367 38.8964C118.382 38.2824 118.558 37.6832 118.877 37.1586C119.109 36.7586 119.439 36.4249 119.836 36.1894C120.234 35.9539 120.685 35.8245 121.147 35.8138C122.704 35.7683 124.423 37.0575 125.298 38.3416C125.574 38.7178 125.763 39.1516 125.849 39.6106C125.919 40.1369 125.836 40.6723 125.61 41.1528C125.384 41.6333 125.025 42.0387 124.575 42.3204C123.983 42.6907 123.296 42.8805 122.598 42.8664V42.8664ZM121.198 36.2941H121.157C120.778 36.3014 120.407 36.4079 120.081 36.603C119.756 36.7982 119.487 37.0751 119.302 37.4063C119.034 37.8563 118.887 38.368 118.876 38.8916C118.864 39.4152 118.988 39.9328 119.236 40.3942C119.498 40.8578 119.855 41.2609 120.284 41.5771C120.713 41.8934 121.203 42.1156 121.723 42.2294C122.156 42.3439 122.607 42.3702 123.05 42.3068C123.493 42.2434 123.919 42.0916 124.302 41.8603C124.666 41.6282 124.958 41.2986 125.143 40.9089C125.329 40.5192 125.402 40.0851 125.353 39.6561C125.275 39.2707 125.115 38.9068 124.883 38.5893C124.09 37.467 122.573 36.3143 121.198 36.3143V36.2941Z" fill="#231F20"/>
<path d="M153.538 55.1666C153.538 55.1666 157.901 42.2496 157.295 39.1758C156.688 36.102 155.717 23.7107 154.469 23.19C153.22 22.6693 150.561 26.0869 150.475 29.9291C150.421 32.1953 150.716 34.4562 151.349 36.6328C151.349 36.6328 147.072 38.3366 146.228 48.6651" fill="white"/>
<path d="M153.538 55.4194H153.457C153.394 55.3965 153.343 55.3499 153.313 55.2894C153.284 55.229 153.28 55.1596 153.301 55.0958C153.346 54.9695 157.633 42.2091 157.047 39.2314C156.86 38.2759 156.637 36.4609 156.385 34.3528C155.935 30.647 155.101 23.736 154.362 23.4327C154.224 23.4017 154.08 23.4034 153.942 23.4376C153.805 23.4719 153.677 23.5377 153.569 23.6298C152.416 24.3781 150.788 26.9868 150.722 29.9443C150.665 32.18 150.948 34.4113 151.562 36.5621C151.58 36.6232 151.576 36.6891 151.549 36.747C151.522 36.8049 151.474 36.8507 151.415 36.8755C151.375 36.8755 147.264 38.6854 146.45 48.6955C146.445 48.7625 146.413 48.8247 146.362 48.8683C146.311 48.9119 146.244 48.9334 146.177 48.928C146.11 48.9227 146.048 48.8909 146.005 48.8397C145.961 48.7885 145.939 48.7221 145.945 48.655C146.693 39.4741 150.116 37.0272 151 36.5216C150.418 34.381 150.149 32.1672 150.202 29.9493C150.267 26.9868 151.85 24.1455 153.281 23.2203C153.453 23.0753 153.66 22.9773 153.881 22.9357C154.103 22.8941 154.331 22.9103 154.544 22.9827C155.399 23.3366 155.955 26.7643 156.865 34.3073C157.118 36.4053 157.34 38.2152 157.522 39.1505C158.134 42.2597 153.938 54.742 153.761 55.2728C153.741 55.3155 153.71 55.3519 153.67 55.3778C153.631 55.4037 153.585 55.4181 153.538 55.4194V55.4194Z" fill="#231F20"/>
<path d="M133.913 33.559C133.764 33.5611 133.618 33.5305 133.483 33.4696C133.348 33.4087 133.228 33.3189 133.131 33.2066C133.035 33.0942 132.964 32.962 132.925 32.8194C132.885 32.6767 132.877 32.5271 132.901 32.3811L133.645 27.9018C133.659 27.7649 133.701 27.6323 133.769 27.5123C133.836 27.3923 133.928 27.2873 134.037 27.2039C134.147 27.1204 134.272 27.0602 134.406 27.027C134.54 26.9937 134.679 26.9882 134.815 27.0106C134.951 27.033 135.08 27.0829 135.196 27.1573C135.312 27.2318 135.412 27.3291 135.489 27.4433C135.566 27.5575 135.618 27.6862 135.644 27.8216C135.669 27.9569 135.667 28.0961 135.636 28.2304L135.161 31.1121L142.158 29.0039C142.415 28.9248 142.693 28.951 142.93 29.0766C143.168 29.2022 143.346 29.417 143.425 29.6738C143.504 29.9306 143.478 30.2082 143.352 30.4457C143.226 30.6832 143.012 30.8611 142.755 30.9402L134.201 33.5135C134.107 33.5425 134.01 33.5579 133.913 33.559V33.559Z" fill="white"/>
<path d="M147.719 89.7266L151.779 69.2363L129.337 63.0584L120.788 89.7266H147.719Z" fill="#231F20"/>
<path d="M147.719 89.9895H120.783C120.744 89.9892 120.705 89.9799 120.67 89.9623C120.635 89.9448 120.605 89.9195 120.581 89.8884C120.558 89.8557 120.543 89.8182 120.537 89.7788C120.531 89.7393 120.534 89.6991 120.546 89.6609L129.105 62.9826C129.126 62.921 129.169 62.8696 129.226 62.8387C129.283 62.8077 129.35 62.7995 129.413 62.8157L151.855 68.9937C151.917 69.0104 151.97 69.05 152.004 69.1044C152.037 69.1588 152.049 69.2241 152.037 69.2869L147.992 89.7772C147.981 89.8401 147.947 89.8967 147.897 89.9359C147.846 89.9752 147.783 89.9943 147.719 89.9895ZM121.132 89.484H147.512L151.486 69.4234L129.504 63.3567L121.132 89.484Z" fill="#231F20"/>
<path d="M89.3323 20.9655C89.3323 20.9655 99.9491 10.3488 112.644 12.7249L111.799 16.5116L119.641 13.6501L114.079 5.62688L113.599 9.04446C113.599 9.04446 102.532 4.75226 85.3333 12.2598L89.3323 20.9655Z" fill="#231F20"/>
<path d="M89.3323 21.2335H89.2868C89.2462 21.2276 89.2078 21.2116 89.175 21.1868C89.1423 21.1621 89.1164 21.1294 89.0998 21.0919L85.121 12.3508C85.1073 12.3206 85.1002 12.2879 85.1002 12.2548C85.1002 12.2216 85.1073 12.1889 85.121 12.1587C85.1312 12.1269 85.1482 12.0977 85.171 12.0733C85.1937 12.0488 85.2215 12.0296 85.2524 12.0171C100.809 5.22748 111.542 8.08895 113.412 8.69562L113.852 5.57632C113.859 5.52656 113.881 5.48012 113.915 5.44293C113.949 5.40575 113.993 5.3795 114.042 5.36756C114.091 5.35562 114.142 5.35852 114.189 5.37589C114.237 5.39327 114.277 5.42433 114.307 5.4651L119.868 13.4883C119.89 13.5204 119.905 13.5573 119.91 13.5959C119.915 13.6346 119.911 13.6739 119.898 13.7108C119.888 13.7473 119.869 13.7807 119.842 13.808C119.816 13.8353 119.783 13.8558 119.747 13.8675L111.916 16.7492C111.873 16.7642 111.827 16.7674 111.782 16.7585C111.738 16.7497 111.697 16.729 111.663 16.6986C111.629 16.6694 111.603 16.6313 111.589 16.5885C111.574 16.5458 111.572 16.4999 111.582 16.456L112.366 12.917C100.086 10.7987 89.6154 21.0313 89.5345 21.1374C89.51 21.1673 89.4791 21.1915 89.4442 21.2081C89.4092 21.2247 89.371 21.2334 89.3323 21.2335V21.2335ZM85.667 12.3913L89.4132 20.5611C91.1321 18.9736 101.127 10.3437 112.669 12.4721C112.737 12.4862 112.797 12.5261 112.836 12.5834C112.872 12.6403 112.885 12.7093 112.871 12.7755L112.128 16.1122L119.206 13.5035L114.201 6.27905L113.806 9.05962C113.802 9.09734 113.789 9.13346 113.767 9.16507C113.746 9.19668 113.718 9.2229 113.685 9.24163C113.651 9.2578 113.614 9.26619 113.576 9.26619C113.539 9.26619 113.502 9.2578 113.468 9.24163C113.397 9.22646 102.426 5.14154 85.667 12.3761V12.3913Z" fill="#231F20"/>
</svg>
