<svg width="24" height="24" viewBox="0 0 24 24" fill="none" xmlns="http://www.w3.org/2000/svg">
<path d="M21 3.99999C20.9896 3.90813 20.9695 3.81762 20.94 3.72999V3.63999C20.8921 3.5287 20.8243 3.42705 20.74 3.33999C20.6551 3.26026 20.557 3.19596 20.45 3.14999H20.36C20.2678 3.0796 20.1624 3.02858 20.05 2.99999H20C19.9006 2.98491 19.7994 2.98491 19.7 2.99999L1.7 8.99999C1.49993 9.06575 1.32573 9.193 1.20224 9.36358C1.07874 9.53417 1.01225 9.73939 1.01225 9.94999C1.01225 10.1606 1.07874 10.3658 1.20224 10.5364C1.32573 10.707 1.49993 10.8342 1.7 10.9L10.23 13.74L13.07 22.27C13.1358 22.4701 13.263 22.6443 13.4336 22.7678C13.6042 22.8913 13.8094 22.9577 14.02 22.9577C14.2306 22.9577 14.4358 22.8913 14.6064 22.7678C14.777 22.6443 14.9042 22.4701 14.97 22.27L20.97 4.26999C20.9922 4.18178 21.0023 4.09094 21 3.99999ZM16.3 6.28999L10.73 11.86L5.16 9.99999L16.3 6.28999ZM14 18.84L12.14 13.27L17.71 7.69999L14 18.84Z" fill="black"/>
</svg>
