<svg width="80" height="80" viewBox="0 0 80 80" fill="none" xmlns="http://www.w3.org/2000/svg">
<path d="M5 12.5V67.5H75V12.5H5ZM10 17.5H70V52.265L56.8 38.985L55 37.185L53.2 38.985L43.675 48.515L29.3 33.985L27.5 32.185L25.7 33.985L10 49.685V17.5ZM60 22.5C59.3342 22.4849 58.672 22.6031 58.0524 22.8474C57.4329 23.0918 56.8684 23.4575 56.3921 23.923C55.9158 24.3885 55.5373 24.9445 55.2788 25.5584C55.0204 26.1722 54.8871 26.8315 54.887 27.4975C54.8868 28.1635 55.0197 28.8228 55.2778 29.4368C55.536 30.0507 55.9142 30.6069 56.3903 31.0727C56.8663 31.5385 57.4307 31.9044 58.0501 32.1491C58.6696 32.3938 59.3316 32.5122 59.9975 32.4975C61.3039 32.4686 62.5471 31.9294 63.4609 30.9954C64.3748 30.0614 64.8866 28.8067 64.887 27.5C64.8873 26.1932 64.376 24.9383 63.4627 24.0038C62.5493 23.0693 61.3064 22.5295 60 22.5V22.5ZM27.5 39.3L50.47 62.5H10V56.8L27.5 39.3ZM55 44.3L70 59.3V62.5H57.575L47.1875 52.03L55 44.3Z" fill="black"/>
</svg>
