<svg width="16" height="16" viewBox="0 0 16 16" fill="none" xmlns="http://www.w3.org/2000/svg">
<path fill-rule="evenodd" clip-rule="evenodd" d="M8 2.66666C8.26743 2.66666 8.53105 2.68647 8.78781 2.72456L9.17486 3.89713C9.5139 3.99389 9.83619 4.1318 10.1349 4.30551L11.2472 3.76913C11.6411 4.07161 11.9916 4.42818 12.2872 4.82742L11.731 5.9299C11.8994 6.23161 12.032 6.55618 12.1227 6.89751L13.2884 7.30361C13.3526 7.79656 13.3483 8.29604 13.2754 8.7878L12.1029 9.17485C12.0068 9.51043 11.8696 9.83287 11.6945 10.1348L12.2309 11.2472C11.928 11.6412 11.5718 11.9913 11.1726 12.2872L10.0701 11.731C9.76511 11.9013 9.44006 12.0329 9.10248 12.1227L8.69638 13.2884C8.20343 13.3526 7.70395 13.3482 7.21219 13.2754L6.82514 12.1028C6.48956 12.0067 6.16712 11.8696 5.86514 11.6945L4.75276 12.2308C4.35875 11.928 4.00874 11.5718 3.71276 11.1726L4.26895 10.0701C4.09906 9.76491 3.96752 9.4399 3.87733 9.10247L2.71162 8.69561C2.64746 8.2029 2.65182 7.70369 2.72457 7.21218L3.89714 6.82513C3.99391 6.48609 4.13181 6.1638 4.30552 5.86513L3.76914 4.75275C4.07203 4.35874 4.4282 4.00873 4.82743 3.71275L5.92991 4.26894C6.23489 4.09863 6.55994 3.96708 6.89752 3.87732L7.30438 2.71161C7.53504 2.6816 7.7674 2.66659 8 2.66666V2.66666Z" stroke="black" stroke-width="0.710857" stroke-linecap="round" stroke-linejoin="round"/>
<path d="M8 10.2857C9.26237 10.2857 10.2857 9.26234 10.2857 7.99998C10.2857 6.73761 9.26237 5.71426 8 5.71426C6.73764 5.71426 5.71429 6.73761 5.71429 7.99998C5.71429 9.26234 6.73764 10.2857 8 10.2857Z" stroke="black" stroke-width="0.761905" stroke-linecap="round" stroke-linejoin="round"/>
</svg>
