<svg width="16" height="16" viewBox="0 0 16 16" fill="none" xmlns="http://www.w3.org/2000/svg">
<path d="M13.2484 9.25H2.37499C2.30624 9.25 2.24999 9.30625 2.24999 9.375V10.3125C2.24999 10.3813 2.30624 10.4375 2.37499 10.4375H11.8312L9.57655 13.2969C9.51249 13.3781 9.5703 13.5 9.67499 13.5H10.8078C10.8844 13.5 10.9562 13.4656 11.0047 13.4047L13.6422 10.0594C13.9 9.73125 13.6672 9.25 13.2484 9.25V9.25ZM13.625 5.5625H4.16874L6.42343 2.70312C6.48749 2.62188 6.42967 2.5 6.32499 2.5H5.19217C5.11561 2.5 5.04374 2.53438 4.9953 2.59531L2.3578 5.94063C2.09999 6.26875 2.3328 6.75 2.74999 6.75H13.625C13.6937 6.75 13.75 6.69375 13.75 6.625V5.6875C13.75 5.61875 13.6937 5.5625 13.625 5.5625Z" fill="black"/>
</svg>
