<svg width="16" height="16" viewBox="0 0 16 16" fill="none" xmlns="http://www.w3.org/2000/svg">
<path d="M8 3.30732C7.07189 3.30732 6.16461 3.58254 5.39291 4.09818C4.62121 4.61381 4.01974 5.3467 3.66456 6.20417C3.30939 7.06164 3.21646 8.00517 3.39753 8.91546C3.57859 9.82574 4.02552 10.6619 4.6818 11.3182C5.33808 11.9744 6.17423 12.4214 7.08451 12.6024C7.9948 12.7835 8.93833 12.6906 9.7958 12.3354C10.6533 11.9802 11.3862 11.3788 11.9018 10.6071C12.4174 9.83536 12.6926 8.92808 12.6926 7.99997C12.6912 6.75583 12.1964 5.56306 11.3167 4.68332C10.4369 3.80358 9.24414 3.30873 8 3.30732V3.30732ZM8 11.7844C7.25152 11.7844 6.51985 11.5624 5.89751 11.1466C5.27517 10.7307 4.79011 10.1397 4.50368 9.44819C4.21725 8.75668 4.14231 7.99577 4.28833 7.26167C4.43435 6.52757 4.79478 5.85326 5.32403 5.324C5.85329 4.79474 6.5276 4.43432 7.2617 4.28829C7.9958 4.14227 8.75672 4.21722 9.44823 4.50365C10.1397 4.79008 10.7308 5.27513 11.1466 5.89747C11.5624 6.51981 11.7844 7.25149 11.7844 7.99997C11.7833 9.0033 11.3842 9.96522 10.6747 10.6747C9.96526 11.3842 9.00334 11.7832 8 11.7844V11.7844ZM15.1147 8.46799V7.53202L15.8185 6.47623C15.9061 6.34481 15.9639 6.19577 15.9877 6.03961C16.0115 5.88345 16.0007 5.72397 15.9562 5.57242C15.8003 5.05968 15.5951 4.56328 15.3433 4.09018C15.2685 3.95103 15.1637 3.83029 15.0364 3.73671C14.9091 3.64314 14.7625 3.57909 14.6074 3.54921L13.3618 3.30004L12.7 2.63822L12.4508 1.39262C12.4209 1.23747 12.3569 1.09092 12.2633 0.963606C12.1697 0.836293 12.049 0.731417 11.9098 0.656591C11.4367 0.404893 10.9403 0.199684 10.4276 0.0438448C10.276 -0.000709467 10.1165 -0.0114731 9.96034 0.0123129C9.80417 0.0360988 9.65512 0.0938553 9.5237 0.18151L8.46802 0.885278H7.53198L6.47634 0.181544C6.34491 0.0939011 6.19585 0.0361486 6.03968 0.0123568C5.88351 -0.0114351 5.72402 -0.000687308 5.57245 0.0438426C5.05973 0.199684 4.56333 0.40488 4.09022 0.65655C3.95104 0.731374 3.83028 0.836255 3.7367 0.963575C3.64312 1.09089 3.57907 1.23746 3.5492 1.39262L3.30011 2.63814L2.63822 3.30004L1.39266 3.54913C1.23751 3.57901 1.09097 3.64305 0.963667 3.73662C0.836362 3.83019 0.731488 3.95093 0.656658 4.09007C0.404924 4.56321 0.199677 5.05965 0.0438015 5.57242C-0.000720141 5.72397 -0.0114669 5.88345 0.0123183 6.03961C0.0361036 6.19577 0.0938421 6.34481 0.181466 6.47624L0.885274 7.53194V8.46792L0.181466 9.52363C0.0938391 9.65505 0.0361016 9.8041 0.0123225 9.96026C-0.0114565 10.1164 -0.000698433 10.2759 0.0438386 10.4274C0.199666 10.9402 0.404876 11.4367 0.656585 11.9098C0.731415 12.0489 0.836289 12.1697 0.963594 12.2632C1.0909 12.3568 1.23744 12.4209 1.39258 12.4507L2.63822 12.6999L3.30004 13.3617L3.54913 14.6074C3.57901 14.7625 3.64306 14.909 3.73663 15.0363C3.83019 15.1637 3.95093 15.2685 4.09007 15.3434C4.56318 15.5951 5.0596 15.8003 5.57234 15.9561C5.72389 16.0007 5.88337 16.0114 6.03953 15.9876C6.19569 15.9638 6.34473 15.9061 6.47616 15.8185L7.53191 15.1147H8.46795L9.5237 15.8185C9.70228 15.9371 9.91181 16.0003 10.1261 16.0004C10.2282 16.0006 10.3298 15.9857 10.4276 15.9562C10.9403 15.8003 11.4367 15.5951 11.9097 15.3435C12.0489 15.2686 12.1697 15.1637 12.2632 15.0364C12.3568 14.9091 12.4208 14.7626 12.4507 14.6074L12.6999 13.3618L13.3617 12.6999L14.6073 12.4508C14.7625 12.4209 14.909 12.3569 15.0363 12.2633C15.1636 12.1698 15.2685 12.049 15.3433 11.9099C15.5951 11.4367 15.8003 10.9403 15.9562 10.4276C16.0007 10.276 16.0115 10.1166 15.9877 9.9604C15.9639 9.80424 15.9061 9.6552 15.8185 9.52378L15.1147 8.46799ZM15.0872 10.1633C14.9485 10.6197 14.7658 11.0616 14.5417 11.4828C14.5296 11.503 14.5133 11.5204 14.4939 11.5338C14.4745 11.5471 14.4524 11.5561 14.4292 11.5602L13.0488 11.8362C12.9608 11.8538 12.8801 11.897 12.8167 11.9604L11.9604 12.8168C11.897 12.8802 11.8538 12.9609 11.8362 13.0488L11.5601 14.4293C11.5561 14.4525 11.547 14.4746 11.5337 14.494C11.5203 14.5134 11.5029 14.5298 11.4827 14.5419C11.0615 14.7659 10.6197 14.9485 10.1633 15.0872C10.1402 15.0931 10.1162 15.094 10.0927 15.0898C10.0693 15.0856 10.0471 15.0764 10.0275 15.0628L8.85733 14.2827C8.78274 14.2329 8.69509 14.2064 8.60543 14.2064H7.39442C7.30477 14.2064 7.21712 14.2329 7.14252 14.2827L5.97236 15.0628C5.95281 15.0763 5.93057 15.0856 5.90715 15.0898C5.88373 15.094 5.85967 15.0931 5.83662 15.0872C5.38021 14.9485 4.93833 14.7658 4.51718 14.5418C4.49696 14.5297 4.47957 14.5134 4.46621 14.494C4.45286 14.4745 4.44383 14.4525 4.43975 14.4293L4.16372 13.0488C4.14612 12.9609 4.1029 12.8801 4.03951 12.8167L3.18322 11.9604C3.11983 11.897 3.03908 11.8538 2.95117 11.8362L1.57071 11.5601C1.5475 11.5561 1.52543 11.547 1.50601 11.5337C1.48659 11.5203 1.47026 11.5029 1.45814 11.4827C1.23411 11.0615 1.05147 10.6196 0.91277 10.1632C0.906868 10.1401 0.905994 10.1161 0.910209 10.0927C0.914424 10.0692 0.923629 10.047 0.937199 10.0274L1.71725 8.85733C1.76699 8.78274 1.79353 8.69509 1.79353 8.60543V7.39443C1.79353 7.30477 1.76699 7.21712 1.71725 7.14253L0.937196 5.97244C0.923618 5.95288 0.914409 5.93064 0.910193 5.90721C0.905978 5.88378 0.906856 5.85972 0.912767 5.83666C1.05152 5.38021 1.2342 4.93829 1.45825 4.51711C1.47036 4.4969 1.48668 4.47953 1.5061 4.46617C1.52551 4.45282 1.54757 4.4438 1.57078 4.43972L2.95116 4.16369C3.03907 4.14611 3.11982 4.10291 3.18321 4.03951L4.03958 3.18315C4.10297 3.11975 4.14619 3.03901 4.1638 2.9511L4.43979 1.57072C4.44388 1.54751 4.45291 1.52544 4.46627 1.50602C4.47964 1.48661 4.49702 1.47029 4.51725 1.45819C4.93841 1.23416 5.3803 1.0515 5.83673 0.912778C5.85979 0.906874 5.88385 0.906 5.90727 0.910215C5.9307 0.91443 5.95295 0.923636 5.97251 0.937207L7.1426 1.71726C7.21719 1.767 7.30484 1.79354 7.3945 1.79353H8.6055C8.69516 1.79354 8.78281 1.767 8.8574 1.71725L10.0275 0.937166C10.0471 0.923617 10.0693 0.914427 10.0928 0.910219C10.1162 0.90601 10.1402 0.906882 10.1633 0.912774C10.6197 1.05148 11.0616 1.23414 11.4828 1.45818C11.503 1.47028 11.5204 1.4866 11.5337 1.50601C11.5471 1.52543 11.5561 1.5475 11.5602 1.57072L11.8363 2.95117C11.8539 3.03908 11.8971 3.11983 11.9605 3.18322L12.8168 4.03951C12.8802 4.10291 12.9609 4.14612 13.0488 4.16369L14.4292 4.4398C14.4524 4.44387 14.4745 4.4529 14.4939 4.46626C14.5133 4.47962 14.5296 4.497 14.5418 4.51722C14.7658 4.93835 14.9485 5.38024 15.0872 5.83666C15.0931 5.85972 15.094 5.88378 15.0898 5.90721C15.0856 5.93064 15.0764 5.95288 15.0628 5.97244L14.2827 7.1426C14.2329 7.2172 14.2064 7.30485 14.2064 7.3945V8.60551C14.2064 8.69517 14.2329 8.78281 14.2827 8.85741L15.0628 10.0276C15.0764 10.0471 15.0856 10.0694 15.0898 10.0928C15.094 10.1162 15.0931 10.1403 15.0872 10.1633L15.0872 10.1633Z" fill="black"/>
</svg>
