<svg width="24" height="24" viewBox="0 0 24 24" fill="none" xmlns="http://www.w3.org/2000/svg">
<path d="M3.75 4.125C3.75 3.82663 3.86853 3.54048 4.0795 3.3295C4.29048 3.11853 4.57663 3 4.875 3H18.375C18.6734 3 18.9595 3.11853 19.1705 3.3295C19.3815 3.54048 19.5 3.82663 19.5 4.125V6.375C19.5 6.67337 19.3815 6.95952 19.1705 7.1705C18.9595 7.38147 18.6734 7.5 18.375 7.5C18.0766 7.5 17.7905 7.38147 17.5795 7.1705C17.3685 6.95952 17.25 6.67337 17.25 6.375V5.25H12.75V18.75H14.625C14.9234 18.75 15.2095 18.8685 15.4205 19.0795C15.6315 19.2905 15.75 19.5766 15.75 19.875C15.75 20.1734 15.6315 20.4595 15.4205 20.6705C15.2095 20.8815 14.9234 21 14.625 21H8.625C8.32663 21 8.04048 20.8815 7.8295 20.6705C7.61853 20.4595 7.5 20.1734 7.5 19.875C7.5 19.5766 7.61853 19.2905 7.8295 19.0795C8.04048 18.8685 8.32663 18.75 8.625 18.75H10.5V5.25H6V6.375C6 6.67337 5.88147 6.95952 5.6705 7.1705C5.45952 7.38147 5.17337 7.5 4.875 7.5C4.57663 7.5 4.29048 7.38147 4.0795 7.1705C3.86853 6.95952 3.75 6.67337 3.75 6.375V4.125Z" fill="black"/>
</svg>
