<svg width="17" height="19" viewBox="0 0 17 19" fill="none" xmlns="http://www.w3.org/2000/svg">
<path d="M4.95832 1.01786V4.41071C4.95832 4.97287 4.60155 5.42857 4.16145 5.42857H0.796875C0.356768 5.42857 0 4.97287 0 4.41071V1.01786C0 0.455703 0.356768 0 0.796875 0H4.16145C4.60155 0 4.95832 0.455703 4.95832 1.01786ZM10.9792 11.1964V7.80357C10.9792 7.24142 10.6224 6.78571 10.1823 6.78571H6.8177C6.37759 6.78571 6.02082 7.24142 6.02082 7.80357V11.1964C6.02082 11.7586 6.37759 12.2143 6.8177 12.2143H10.1823C10.6224 12.2143 10.9792 11.7586 10.9792 11.1964ZM12.0417 1.01786V4.41071C12.0417 4.97287 12.3984 5.42857 12.8386 5.42857H16.2031C16.6432 5.42857 17 4.97287 17 4.41071V1.01786C17 0.455703 16.6432 0 16.2031 0H12.8386C12.3984 0 12.0417 0.455703 12.0417 1.01786ZM10.9792 4.41071V1.01786C10.9792 0.455703 10.6224 0 10.1823 0H6.8177C6.37759 0 6.02082 0.455703 6.02082 1.01786V4.41071C6.02082 4.97287 6.37759 5.42857 6.8177 5.42857H10.1823C10.6224 5.42857 10.9792 4.97287 10.9792 4.41071ZM4.16145 6.78571H0.796875C0.356768 6.78571 0 7.24142 0 7.80357V11.1964C0 11.7586 0.356768 12.2143 0.796875 12.2143H4.16145C4.60155 12.2143 4.95832 11.7586 4.95832 11.1964V7.80357C4.95832 7.24142 4.60155 6.78571 4.16145 6.78571ZM0 14.5893V17.9821C0 18.5443 0.356768 19 0.796875 19H4.16145C4.60155 19 4.95832 18.5443 4.95832 17.9821V14.5893C4.95832 14.0271 4.60155 13.5714 4.16145 13.5714H0.796875C0.356768 13.5714 0 14.0271 0 14.5893ZM12.8386 12.2143H16.2031C16.6432 12.2143 17 11.7586 17 11.1964V7.80357C17 7.24142 16.6432 6.78571 16.2031 6.78571H12.8386C12.3984 6.78571 12.0417 7.24142 12.0417 7.80357V11.1964C12.0417 11.7586 12.3984 12.2143 12.8386 12.2143ZM12.8386 19H16.2031C16.6432 19 17 18.5443 17 17.9821V14.5893C17 14.0271 16.6432 13.5714 16.2031 13.5714H12.8386C12.3984 13.5714 12.0417 14.0271 12.0417 14.5893V17.9821C12.0417 18.5443 12.3984 19 12.8386 19ZM6.02082 14.5893V17.9821C6.02082 18.5443 6.37759 19 6.8177 19H10.1823C10.6224 19 10.9791 18.5443 10.9791 17.9821V14.5893C10.9791 14.0271 10.6224 13.5714 10.1823 13.5714H6.8177C6.37759 13.5714 6.02082 14.0271 6.02082 14.5893V14.5893Z" fill="black"/>
</svg>
