<svg width="21" height="21" viewBox="0 0 21 21" fill="none" xmlns="http://www.w3.org/2000/svg">
<path d="M10.5 4.66667C10.9832 4.66667 11.375 5.05842 11.375 5.54167V9.625H15.4583C15.9416 9.625 16.3333 10.0168 16.3333 10.5C16.3333 10.9832 15.9416 11.375 15.4583 11.375H11.375V15.4583C11.375 15.9416 10.9832 16.3333 10.5 16.3333C10.0168 16.3333 9.625 15.9416 9.625 15.4583V11.375H5.54167C5.05842 11.375 4.66667 10.9832 4.66667 10.5C4.66667 10.0168 5.05842 9.625 5.54167 9.625H9.625V5.54167C9.625 5.05842 10.0168 4.66667 10.5 4.66667Z" fill="#212121"/>
<path d="M0 3.79167C0 1.69758 1.69758 0 3.79167 0H17.2083C19.3024 0 21 1.69758 21 3.79167V17.2083C21 19.3024 19.3024 21 17.2083 21H3.79167C1.69758 21 0 19.3024 0 17.2083V3.79167ZM3.79167 1.75C2.66408 1.75 1.75 2.66408 1.75 3.79167V17.2083C1.75 18.3359 2.66408 19.25 3.79167 19.25H17.2083C18.3359 19.25 19.25 18.3359 19.25 17.2083V3.79167C19.25 2.66408 18.3359 1.75 17.2083 1.75H3.79167Z" fill="#212121"/>
</svg>
