<svg width="24" height="24" viewBox="0 0 24 24" fill="none" xmlns="http://www.w3.org/2000/svg">
<path d="M7.05173 21.5923C7.18579 21.57 7.32347 21.5892 7.44633 21.6473C8.85759 22.3147 10.4036 22.6655 12.0006 22.6655C17.8914 22.6655 22.6667 17.8901 22.6667 11.9994C22.6667 6.10865 17.8914 1.33326 12.0006 1.33326C6.10988 1.33326 1.3345 6.10865 1.3345 11.9994C1.3345 14.2751 2.04818 16.4416 3.35379 18.2457C3.49453 18.4401 3.51985 18.6953 3.42007 18.9136L1.79555 22.4684L7.05173 21.5923ZM0.77746 23.9897C0.250538 24.0775 -0.160489 23.5409 0.0615471 23.055L2.04903 18.706C0.723108 16.7426 0.00123349 14.4246 0.00123349 11.9994C0.00123349 5.37231 5.37354 0 12.0006 0C18.6277 0 24 5.37231 24 11.9994C24 18.6265 18.6277 23.9988 12.0006 23.9988C10.2774 23.9988 8.60461 23.6349 7.06825 22.9412L0.77746 23.9897Z" fill="black"/>
</svg>
