<svg width="15" height="4" viewBox="0 0 15 4" fill="none" xmlns="http://www.w3.org/2000/svg">
<path fill-rule="evenodd" clip-rule="evenodd" d="M1.73077 3.46154C1.27174 3.46154 0.831513 3.27919 0.506931 2.95461C0.182348 2.63003 0 2.1898 0 1.73077C0 1.27174 0.182348 0.831513 0.506931 0.50693C0.831513 0.182348 1.27174 0 1.73077 0C2.1898 0 2.63003 0.182348 2.95461 0.50693C3.27919 0.831513 3.46154 1.27174 3.46154 1.73077C3.46154 2.1898 3.27919 2.63003 2.95461 2.95461C2.63003 3.27919 2.1898 3.46154 1.73077 3.46154ZM7.5 3.46154C7.04097 3.46154 6.60074 3.27919 6.27616 2.95461C5.95158 2.63003 5.76923 2.1898 5.76923 1.73077C5.76923 1.27174 5.95158 0.831513 6.27616 0.50693C6.60074 0.182348 7.04097 0 7.5 0C7.95903 0 8.39926 0.182348 8.72384 0.50693C9.04842 0.831513 9.23077 1.27174 9.23077 1.73077C9.23077 2.1898 9.04842 2.63003 8.72384 2.95461C8.39926 3.27919 7.95903 3.46154 7.5 3.46154ZM13.2692 3.46154C12.8102 3.46154 12.37 3.27919 12.0454 2.95461C11.7208 2.63003 11.5385 2.1898 11.5385 1.73077C11.5385 1.27174 11.7208 0.831513 12.0454 0.50693C12.37 0.182348 12.8102 0 13.2692 0C13.7283 0 14.1685 0.182348 14.4931 0.50693C14.8177 0.831513 15 1.27174 15 1.73077C15 2.1898 14.8177 2.63003 14.4931 2.95461C14.1685 3.27919 13.7283 3.46154 13.2692 3.46154Z" fill="black"/>
</svg>
