<svg width="88" height="88" viewBox="0 0 88 88" fill="none" xmlns="http://www.w3.org/2000/svg">
<g filter="url(#filter0_d_37_6)">
<path d="M70.8224 61.9582C67.3103 56.2994 59.5789 50.2349 43.7746 50.2349C27.9704 50.2349 20.2438 56.2944 16.7268 61.9582C19.9672 66.0205 24.0819 69.2999 28.7648 71.5523C33.4477 73.8046 38.5782 74.9721 43.7746 74.9677C48.971 74.9721 54.1015 73.8046 58.7844 71.5523C63.4673 69.2999 67.582 66.0205 70.8224 61.9582V61.9582Z" fill="black"/>
<path fill-rule="evenodd" clip-rule="evenodd" d="M43.7746 45.2883C47.7103 45.2883 51.4849 43.7249 54.2678 40.9419C57.0508 38.1589 58.6143 34.3844 58.6143 30.4487C58.6143 26.5129 57.0508 22.7384 54.2678 19.9554C51.4849 17.1725 47.7103 15.609 43.7746 15.609C39.8389 15.609 36.0643 17.1725 33.2814 19.9554C30.4984 22.7384 28.9349 26.5129 28.9349 30.4487C28.9349 34.3844 30.4984 38.1589 33.2814 40.9419C36.0643 43.7249 39.8389 45.2883 43.7746 45.2883V45.2883Z" fill="black"/>
<path fill-rule="evenodd" clip-rule="evenodd" d="M43.7746 5.71588C34.5912 5.71588 25.784 9.36396 19.2904 15.8576C12.7968 22.3512 9.1487 31.1584 9.1487 40.3418C9.1487 49.5251 12.7968 58.3324 19.2904 64.826C25.784 71.3196 34.5912 74.9677 43.7746 74.9677C52.958 74.9677 61.7652 71.3196 68.2588 64.826C74.7524 58.3324 78.4005 49.5251 78.4005 40.3418C78.4005 31.1584 74.7524 22.3512 68.2588 15.8576C61.7652 9.36396 52.958 5.71588 43.7746 5.71588V5.71588ZM4.20214 40.3418C4.20214 29.8465 8.37137 19.7811 15.7926 12.3598C23.2139 4.93856 33.2793 0.769325 43.7746 0.769325C54.2699 0.769325 64.3353 4.93856 71.7566 12.3598C79.1778 19.7811 83.3471 29.8465 83.3471 40.3418C83.3471 50.8371 79.1778 60.9025 71.7566 68.3237C64.3353 75.745 54.2699 79.9142 43.7746 79.9142C33.2793 79.9142 23.2139 75.745 15.7926 68.3237C8.37137 60.9025 4.20214 50.8371 4.20214 40.3418V40.3418Z" fill="black"/>
</g>
<defs>
<filter id="filter0_d_37_6" x="0.20214" y="0.769325" width="87.1449" height="87.1449" filterUnits="userSpaceOnUse" color-interpolation-filters="sRGB">
<feFlood flood-opacity="0" result="BackgroundImageFix"/>
<feColorMatrix in="SourceAlpha" type="matrix" values="0 0 0 0 0 0 0 0 0 0 0 0 0 0 0 0 0 0 127 0" result="hardAlpha"/>
<feOffset dy="4"/>
<feGaussianBlur stdDeviation="2"/>
<feComposite in2="hardAlpha" operator="out"/>
<feColorMatrix type="matrix" values="0 0 0 0 0 0 0 0 0 0 0 0 0 0 0 0 0 0 0.25 0"/>
<feBlend mode="normal" in2="BackgroundImageFix" result="effect1_dropShadow_37_6"/>
<feBlend mode="normal" in="SourceGraphic" in2="effect1_dropShadow_37_6" result="shape"/>
</filter>
</defs>
</svg>
